<?xml version="1.0" standalone="no"?>
<!DOCTYPE svg PUBLIC "-//W3C//DTD SVG 20010904//EN"
 "http://www.w3.org/TR/2001/REC-SVG-20010904/DTD/svg10.dtd">
<svg version="1.0" xmlns="http://www.w3.org/2000/svg"
 width="1008.000000pt" height="485.000000pt" viewBox="0 0 1008.000000 485.000000"
 preserveAspectRatio="xMidYMid meet">

<g transform="translate(0.000000,485.000000) scale(0.100000,-0.100000)"
fill="#000000" stroke="none">
<path d="M0 2425 l0 -2425 5040 0 5040 0 0 2425 0 2425 -5040 0 -5040 0 0
-2425z m5226 1789 c49 -31 96 -100 109 -161 l7 -33 -50 0 -49 0 -13 44 c-7 24
-25 57 -41 72 -39 37 -135 45 -189 16 -74 -39 -114 -181 -93 -329 19 -133 71
-193 169 -193 92 0 136 31 156 107 l10 43 50 0 50 0 -7 -31 c-28 -128 -119
-199 -254 -199 -80 0 -122 15 -172 59 -58 51 -87 111 -99 207 -17 135 4 256
60 333 55 75 120 103 232 98 64 -3 85 -9 124 -33z m-1728 -246 c59 -146 109
-264 113 -263 3 2 52 123 110 269 l104 265 63 1 62 0 0 -340 0 -340 -51 0 -52
0 8 258 c4 141 5 255 2 252 -5 -5 -141 -335 -189 -458 -21 -53 -21 -53 -61
-50 l-39 3 -99 244 c-55 135 -101 247 -104 249 -3 3 -5 -108 -5 -246 l0 -252
-45 0 -44 0 -3 340 -3 341 63 -3 64 -3 106 -267z m732 26 c-1 -135 0 -247 2
-249 2 -2 75 109 162 246 l160 249 48 0 48 0 0 -341 0 -340 -47 3 -48 3 -2
244 c-1 134 -4 245 -5 247 -2 1 -75 -109 -163 -247 l-159 -249 -48 0 -48 0 0
340 0 340 50 0 51 0 -1 -246z m1770 -94 l0 -340 -50 0 -50 0 0 300 0 300 -119
0 -118 0 -7 -157 c-9 -199 -21 -282 -47 -344 -29 -65 -67 -92 -142 -97 l-58
-5 3 39 c3 34 6 39 35 45 88 18 95 49 119 492 l6 107 214 0 214 0 0 -340z
m270 83 l0 -258 74 115 c41 63 116 179 166 258 l92 142 49 0 49 0 0 -340 0
-340 -50 0 -50 0 -2 252 -3 252 -160 -251 -160 -252 -52 0 -53 -1 0 340 0 340
50 0 50 0 0 -257z m-2557 -717 c54 -27 96 -72 126 -136 33 -74 42 -246 17
-335 -43 -146 -138 -213 -287 -203 -88 7 -147 40 -194 111 -46 71 -59 124 -58
247 1 165 48 260 155 315 46 23 63 26 128 23 46 -2 90 -11 113 -22z m3992 -3
c83 -44 130 -121 146 -243 22 -164 -20 -309 -109 -377 -104 -79 -257 -71 -349
19 -70 69 -88 122 -88 268 0 146 15 203 72 270 20 23 60 54 87 67 43 20 62 23
126 20 50 -2 88 -11 115 -24z m-5135 -23 l0 -40 -165 0 -165 0 0 -300 0 -300
-50 0 -50 0 0 340 0 340 215 0 215 0 0 -40z m590 -300 l0 -340 -45 0 -45 0 0
300 0 300 -119 0 -118 0 -7 -61 c-3 -34 -6 -92 -6 -128 0 -84 -17 -235 -31
-281 -26 -82 -88 -130 -169 -130 l-41 0 3 37 c3 33 7 38 36 44 44 9 66 31 81
80 13 44 30 256 31 389 1 143 -22 130 221 130 l209 0 0 -340z m1280 300 l0
-40 -165 0 -165 0 0 -100 0 -100 114 0 c165 0 226 -26 267 -115 41 -88 11
-194 -69 -250 l-44 -30 -184 -3 -184 -4 0 341 0 341 215 0 215 0 0 -40z m538
-98 c28 -75 86 -225 127 -332 41 -107 75 -198 75 -202 0 -5 -22 -8 -48 -8
l-48 0 -29 85 -30 85 -142 0 -141 0 -33 -85 -32 -85 -48 0 c-27 0 -49 2 -49 4
0 5 233 614 250 654 8 18 17 22 52 22 l43 0 53 -138z m842 -202 l0 -340 -50 0
-50 0 0 300 0 300 -114 0 -114 0 -6 -62 c-3 -35 -8 -116 -11 -182 -7 -144 -19
-207 -48 -265 -30 -60 -64 -83 -132 -89 l-56 -5 3 39 c3 35 6 39 38 45 41 9
66 36 80 90 12 43 29 297 30 427 l0 82 215 0 215 0 0 -340z m270 200 l0 -140
114 0 c165 0 226 -26 267 -115 23 -49 24 -113 4 -162 -22 -52 -42 -72 -100
-99 -46 -22 -63 -24 -212 -24 l-163 0 0 340 0 340 45 0 45 0 0 -140z m630 -5
l0 -145 165 0 165 0 0 145 0 145 50 0 50 0 0 -340 0 -340 -50 0 -50 0 0 155 0
155 -165 0 -165 0 0 -155 0 -155 -50 0 -50 0 0 340 0 340 50 0 50 0 0 -145z
m-5490 -1430 c0 -8 -7 -15 -15 -15 -16 0 -20 12 -8 23 11 12 23 8 23 -8z m277
-11 c-9 -9 -28 6 -21 18 4 6 10 6 17 -1 6 -6 8 -13 4 -17z m843 5 c0 -5 -7 -9
-15 -9 -15 0 -20 12 -9 23 8 8 24 -1 24 -14z m1600 6 c0 -8 -4 -15 -9 -15 -13
0 -22 16 -14 24 11 11 23 6 23 -9z m-2799 -14 c19 -15 24 -29 24 -66 0 -58
-27 -85 -86 -85 l-39 0 0 85 0 85 39 0 c23 0 48 -8 62 -19z m283 3 c9 -8 16
-20 16 -25 0 -15 -27 -10 -34 6 -7 19 -40 19 -56 0 -6 -8 -12 -30 -12 -50 0
-20 6 -42 12 -50 18 -22 57 -19 63 5 4 16 0 20 -20 20 -13 0 -21 4 -18 10 3 6
19 10 36 10 26 0 29 -3 29 -34 0 -37 -12 -46 -61 -46 -44 0 -69 31 -69 87 0
29 6 53 17 65 20 22 76 24 97 2z m6619 -1 c-4 -9 -17 -13 -36 -11 -46 5 -45
25 2 25 30 0 38 -3 34 -14z m877 6 c0 -12 -46 -23 -65 -15 -28 11 -15 23 25
23 22 0 40 -4 40 -8z m-7700 -94 c0 -51 -3 -65 -15 -65 -12 0 -15 14 -15 65 0
51 3 65 15 65 12 0 15 -14 15 -65z m280 -1 c0 -48 -3 -65 -12 -62 -18 6 -19
128 -1 128 9 0 13 -18 13 -66z m370 11 c0 -52 1 -55 25 -55 24 0 25 3 25 55 0
42 3 55 15 55 11 0 15 -11 15 -39 0 -21 3 -59 6 -85 6 -38 4 -46 -10 -46 -9 0
-16 8 -16 20 0 17 -7 20 -45 20 l-45 0 0 65 c0 51 3 65 15 65 12 0 15 -13 15
-55z m204 33 c27 -38 20 -48 -29 -48 -25 0 -45 -4 -45 -9 0 -18 29 -32 54 -25
28 7 37 -10 10 -20 -47 -18 -77 -3 -89 47 -16 63 63 107 99 55z m206 -17 c0
-21 3 -59 6 -85 6 -39 4 -46 -10 -46 -11 0 -16 7 -14 18 2 14 -5 18 -39 20
-38 3 -43 1 -43 -17 0 -12 -4 -21 -9 -21 -19 0 -20 33 -1 68 11 20 20 51 20
69 0 32 1 33 45 33 l45 0 0 -39z m60 -26 c0 -51 -3 -65 -15 -65 -12 0 -15 14
-15 65 0 51 3 65 15 65 12 0 15 -14 15 -65z m140 11 c0 -64 18 -79 44 -35 16
28 16 32 2 54 -19 29 -20 35 -4 35 7 0 22 -12 35 -27 l22 -28 1 28 c0 34 22
32 30 -2 l5 -23 14 26 c8 14 23 26 33 26 19 0 19 -1 -1 -29 l-21 -29 21 -36
c18 -31 19 -36 5 -36 -9 0 -25 15 -36 33 -19 30 -23 28 -23 -15 0 -32 -26 -19
-29 15 l-4 32 -19 -32 c-13 -22 -28 -33 -42 -33 -13 0 -22 -3 -22 -7 3 -19 -2
-33 -11 -33 -5 0 -10 9 -10 20 0 17 -7 20 -40 20 -37 0 -45 -7 -41 -32 0 -5
-6 -8 -14 -8 -20 0 -19 48 0 74 8 11 15 37 15 58 l0 38 45 0 45 0 0 -54z m252
17 l3 -38 22 38 c35 59 53 50 53 -28 0 -50 -3 -65 -14 -65 -10 0 -16 13 -18
38 l-3 37 -23 -37 c-36 -59 -52 -50 -52 27 0 50 3 65 14 65 10 0 16 -13 18
-37z m208 27 c0 -5 -10 -10 -23 -10 -21 0 -23 -4 -22 -52 0 -32 -5 -53 -12
-55 -10 -3 -13 11 -13 51 0 53 -1 56 -26 56 -14 0 -23 4 -19 10 3 6 31 10 61
10 30 0 54 -4 54 -10z m98 -2 c7 -7 12 -36 12 -65 l0 -53 -45 0 c-33 0 -47 5
-54 18 -14 26 13 62 45 62 15 0 24 6 24 15 0 18 -31 20 -48 3 -17 -17 -28 -2
-12 17 15 18 61 20 78 3z m152 -53 c0 -51 -3 -65 -15 -65 -12 0 -15 13 -15 55
0 41 -4 55 -14 55 -10 0 -17 -18 -23 -52 -7 -44 -12 -54 -31 -56 -22 -3 -31
13 -11 20 6 2 14 27 17 56 l5 52 43 0 44 0 0 -65z m178 53 c7 -7 12 -36 12
-65 l0 -53 -45 0 c-33 0 -47 5 -54 18 -14 26 13 62 45 62 15 0 24 6 24 15 0
18 -31 20 -48 3 -17 -17 -28 -2 -12 17 15 18 61 20 78 3z m132 2 c0 -5 -13
-10 -30 -10 -30 0 -30 -1 -30 -55 0 -42 -3 -55 -15 -55 -12 0 -15 14 -15 65
l0 65 45 0 c25 0 45 -4 45 -10z m98 -2 c5 -7 13 -23 16 -35 7 -22 4 -23 -38
-23 -25 0 -46 -4 -46 -9 0 -18 29 -32 54 -25 28 7 37 -10 10 -20 -48 -18 -94
10 -94 59 0 51 69 88 98 53z m62 -13 c0 -20 5 -25 24 -25 18 0 26 6 28 22 2
12 9 23 16 26 9 3 12 -14 12 -62 0 -52 -3 -66 -15 -66 -8 0 -14 3 -14 8 6 35
-3 52 -26 52 -21 0 -25 -5 -25 -30 0 -17 -5 -30 -13 -30 -8 0 -13 20 -14 65
-1 50 2 65 13 65 8 0 14 -10 14 -25z m140 -30 c0 -52 1 -55 25 -55 22 0 25 4
25 39 0 44 8 71 21 71 5 0 9 -25 9 -55 0 -30 5 -55 10 -55 6 0 10 -13 10 -30
0 -20 -5 -30 -15 -30 -8 0 -15 9 -15 20 0 17 -7 20 -48 20 l-48 0 -3 46 c-1
25 1 54 4 65 12 37 25 18 25 -36z m140 -10 c0 -47 -4 -65 -13 -65 -9 0 -12 17
-11 63 2 71 1 67 14 67 6 0 10 -28 10 -65z m140 0 c0 -51 -3 -65 -15 -65 -9 0
-15 9 -15 25 0 16 -6 25 -15 25 -9 0 -21 -11 -27 -25 -6 -14 -20 -25 -30 -25
-18 0 -18 1 -2 26 13 19 14 28 5 37 -32 32 -3 67 56 67 l43 0 0 -65z m190 0
c0 -51 -3 -65 -15 -65 -12 0 -15 13 -15 55 0 53 -1 55 -26 55 -25 0 -26 -2
-22 -55 3 -47 0 -55 -14 -55 -15 0 -18 10 -18 65 l0 65 55 0 55 0 0 -65z m132
48 c22 -20 23 -70 1 -95 -20 -22 -66 -24 -87 -2 -9 8 -16 31 -16 49 0 18 7 41
16 49 20 21 63 20 86 -1z m135 5 c5 -7 9 -35 8 -63 l0 -50 -52 -3 -53 -3 0 65
0 66 44 0 c24 0 48 -6 53 -12z m73 -13 c0 -20 5 -25 25 -25 20 0 25 5 25 25 0
16 6 25 15 25 12 0 15 -14 15 -65 0 -51 -3 -65 -15 -65 -10 0 -15 10 -15 30 0
25 -4 30 -25 30 -21 0 -25 -5 -25 -30 0 -20 -5 -30 -15 -30 -12 0 -15 14 -15
65 0 51 3 65 15 65 9 0 15 -9 15 -25z m204 9 c9 -8 16 -31 16 -49 0 -41 -22
-65 -60 -65 -32 0 -60 31 -60 65 0 55 67 86 104 49z m126 6 c0 -5 -13 -10 -30
-10 -30 0 -30 -1 -30 -55 0 -42 -3 -55 -15 -55 -12 0 -15 14 -15 65 l0 65 45
0 c25 0 45 -4 45 -10z m114 -12 c33 -46 7 -108 -44 -108 -16 0 -36 7 -44 16
-19 18 -21 85 -4 102 21 21 75 15 92 -10z m126 -33 c0 -51 2 -55 24 -55 22 0
23 3 19 55 -4 50 -2 55 16 55 19 0 21 -6 21 -55 0 -30 4 -55 9 -55 5 0 8 -8 6
-17 -2 -10 -4 -24 -4 -30 -2 -22 -31 -14 -31 7 0 17 -7 20 -45 20 l-45 0 0 49
c0 27 -3 56 -6 65 -4 12 0 16 15 16 19 0 21 -6 21 -55z m140 18 l0 -38 22 38
c13 21 30 37 40 37 15 0 18 -9 18 -65 0 -51 -3 -65 -15 -65 -11 0 -15 11 -15
38 l-1 37 -22 -37 c-12 -21 -30 -38 -39 -38 -15 0 -18 10 -18 65 0 51 3 65 15
65 11 0 15 -11 15 -37z m140 10 l1 -28 20 28 c11 15 30 27 42 27 20 0 19 -2
-7 -29 l-27 -28 24 -28 c36 -42 57 -29 57 35 l0 50 50 0 50 0 0 -65 c0 -56 -2
-65 -18 -65 -16 0 -18 7 -14 55 4 51 2 55 -17 55 -18 0 -21 -6 -21 -43 0 -53
-13 -67 -61 -67 -31 0 -41 5 -58 33 l-21 32 0 -32 c0 -25 -4 -33 -18 -33 -17
0 -19 7 -16 58 1 31 3 60 3 65 1 4 8 7 16 7 10 0 15 -10 15 -27z m266 -8 c8
-44 18 -45 30 -3 6 18 17 34 26 36 15 3 14 -7 -9 -75 -29 -89 -38 -103 -64
-103 -24 0 -24 5 1 30 20 20 20 20 0 72 -24 63 -25 78 -5 78 8 0 17 -14 21
-35z m288 13 c14 -23 -2 -37 -18 -15 -29 39 -65 5 -52 -49 6 -23 46 -36 46
-14 0 6 7 10 15 10 8 0 15 -4 15 -8 0 -16 -25 -32 -49 -32 -54 0 -79 60 -45
108 19 27 71 27 88 0z m136 -43 c0 -51 -3 -65 -15 -65 -12 0 -15 13 -15 55 0
52 -1 55 -25 55 -24 0 -25 -3 -25 -55 0 -42 -3 -55 -15 -55 -12 0 -15 14 -15
65 l0 65 55 0 55 0 0 -65z m124 49 c18 -18 21 -66 6 -95 -7 -12 -21 -19 -40
-19 -25 0 -30 -4 -30 -25 0 -16 -6 -25 -15 -25 -12 0 -15 17 -15 90 l0 90 39
0 c23 0 46 -7 55 -16z m146 -49 c0 -51 -3 -65 -15 -65 -9 0 -15 9 -15 25 0 16
-6 25 -15 25 -9 0 -21 -11 -27 -25 -6 -14 -20 -25 -30 -25 -18 0 -18 1 -2 26
13 19 14 28 5 37 -32 32 -3 67 56 67 l43 0 0 -65z m84 22 l18 -42 19 43 c14
29 26 42 39 42 18 0 20 -7 20 -66 0 -57 -2 -65 -17 -62 -13 2 -17 12 -16 33
l3 30 -17 -32 c-9 -18 -23 -33 -30 -33 -7 0 -19 15 -27 33 l-14 32 -1 -32 c-1
-22 -6 -33 -16 -33 -12 0 -15 14 -15 65 0 55 3 65 18 65 10 0 24 -16 36 -43z
m220 21 c35 -50 8 -108 -49 -108 -40 0 -59 21 -59 65 0 44 19 65 60 65 23 0
38 -7 48 -22z m134 13 c8 -4 12 -17 11 -27 -2 -11 1 -29 5 -42 12 -35 -9 -52
-65 -52 l-49 0 0 65 0 65 43 0 c23 0 48 -4 55 -9z m130 -3 c5 -7 12 -37 13
-66 l4 -52 -47 0 c-35 0 -50 5 -56 18 -17 32 4 62 46 62 13 0 22 6 22 15 0 8
-9 15 -20 15 -11 0 -20 -4 -20 -10 0 -5 -7 -10 -15 -10 -18 0 -20 26 -2 33 24
10 65 7 75 -5z m72 -13 c0 -20 5 -25 25 -25 20 0 25 5 25 25 0 16 6 25 15 25
12 0 15 -14 15 -65 0 -51 -3 -65 -15 -65 -10 0 -15 10 -15 30 0 25 -4 30 -25
30 -21 0 -25 -5 -25 -30 0 -20 -5 -30 -15 -30 -12 0 -15 14 -15 65 0 51 3 65
15 65 9 0 15 -9 15 -25z m198 13 c7 -7 12 -36 12 -65 l0 -53 -43 0 c-62 0 -86
30 -51 64 8 9 26 16 40 16 13 0 24 5 24 10 0 16 -30 24 -43 11 -15 -15 -27
-14 -27 3 0 26 66 36 88 14z m132 -13 c0 -20 5 -25 25 -25 20 0 25 5 25 25 0
16 6 25 15 25 12 0 15 -14 15 -65 0 -51 -3 -65 -15 -65 -10 0 -15 10 -15 30 0
25 -4 30 -25 30 -21 0 -25 -5 -25 -30 0 -20 -5 -30 -15 -30 -12 0 -15 14 -15
65 0 51 3 65 15 65 9 0 15 -9 15 -25z m198 13 c7 -7 12 -36 12 -65 l0 -53 -43
0 c-62 0 -86 30 -51 64 8 9 26 16 40 16 13 0 24 5 24 10 0 16 -30 24 -43 11
-15 -15 -27 -14 -27 3 0 26 66 36 88 14z m132 -13 c0 -20 5 -25 25 -25 20 0
25 5 25 25 0 16 6 25 15 25 12 0 15 -14 15 -65 0 -51 -3 -65 -15 -65 -10 0
-15 10 -15 30 0 25 -4 30 -25 30 -21 0 -25 -5 -25 -30 0 -20 -5 -30 -15 -30
-12 0 -15 14 -15 65 0 51 3 65 15 65 9 0 15 -9 15 -25z m200 6 c5 -11 10 -40
10 -65 l0 -45 -46 2 c-32 1 -50 7 -58 20 -16 25 4 51 43 55 31 3 40 15 20 28
-6 3 -22 1 -35 -7 -28 -15 -42 -6 -24 16 18 22 77 19 90 -4z m60 -23 l1 -43
25 43 c38 62 54 56 54 -23 0 -51 -3 -65 -15 -65 -11 0 -15 11 -15 38 l0 37
-22 -37 c-13 -22 -30 -38 -40 -38 -15 0 -18 9 -18 65 0 51 3 65 15 65 11 0 15
-12 15 -42z m140 15 l0 -27 29 28 c37 36 61 31 31 -7 l-21 -27 27 -35 c24 -31
24 -35 8 -35 -11 0 -28 14 -39 30 -25 38 -35 38 -35 0 0 -18 -5 -30 -13 -30
-10 0 -14 18 -16 65 -2 53 1 65 13 65 11 0 16 -9 16 -27z m204 5 c32 -46 7
-108 -43 -108 -24 0 -28 -4 -26 -25 3 -19 -1 -25 -16 -25 -17 0 -19 8 -19 90
l0 90 44 0 c35 0 48 -5 60 -22z m124 10 c7 -7 12 -36 12 -65 l0 -53 -43 0
c-62 0 -86 30 -51 64 8 9 26 16 40 16 13 0 24 5 24 10 0 16 -30 24 -43 11 -15
-15 -27 -14 -27 3 0 26 66 36 88 14z m72 -44 c0 -47 3 -55 18 -52 13 2 18 15
20 56 2 37 7 52 18 52 10 0 14 -14 14 -55 0 -42 3 -55 15 -55 12 0 15 13 15
55 0 42 3 55 15 55 12 0 15 -13 15 -55 0 -30 5 -55 10 -55 6 0 10 -13 10 -30
0 -20 -5 -30 -15 -30 -8 0 -15 9 -15 20 0 18 -7 20 -75 20 l-75 0 0 65 c0 51
3 65 15 65 12 0 15 -13 15 -56z m200 19 l1 -38 22 37 c12 21 30 38 40 38 14 0
17 -10 17 -65 0 -51 -3 -65 -15 -65 -11 0 -15 11 -15 43 l0 42 -26 -42 c-38
-64 -54 -57 -54 22 0 51 3 65 15 65 11 0 15 -11 15 -37z m132 0 l3 -38 25 37
c36 55 48 49 52 -27 3 -58 1 -65 -16 -65 -15 0 -17 6 -14 40 2 22 2 40 1 40
-1 0 -12 -18 -23 -40 -13 -26 -27 -40 -40 -40 -18 0 -20 7 -20 65 0 50 3 65
14 65 10 0 16 -13 18 -37z m-7097 -13 c-3 -5 -42 -10 -86 -10 -46 0 -79 4 -79
10 0 6 35 10 86 10 54 0 83 -4 79 -10z m4085 -63 c0 -18 -27 -53 -35 -46 -10
11 6 59 21 59 8 0 14 -6 14 -13z m-2220 -112 c0 -8 -4 -15 -9 -15 -13 0 -22
16 -14 24 11 11 23 6 23 -9z m445 6 c7 -12 -12 -24 -25 -16 -11 7 -4 25 10 25
5 0 11 -4 15 -9z m4533 -9 c2 -7 -6 -12 -17 -12 -21 0 -27 11 -14 24 9 9 26 2
31 -12z m-7131 -43 c6 -6 15 -24 18 -40 9 -42 -16 -79 -55 -79 -25 0 -30 -4
-30 -25 0 -16 -6 -25 -15 -25 -12 0 -15 17 -15 89 l0 89 42 0 c23 1 48 -4 55
-9z m137 -11 c27 -38 20 -48 -29 -48 -25 0 -45 -4 -45 -9 0 -18 29 -32 54 -25
28 7 37 -10 10 -20 -31 -12 -63 -6 -78 16 -33 46 -7 108 44 108 18 0 34 -8 44
-22z m122 -13 c1 -16 5 -37 8 -46 16 -38 -66 -68 -94 -34 -18 22 -4 31 25 15
18 -10 28 -11 36 -3 15 15 3 33 -22 33 -10 0 -19 5 -19 10 0 6 9 10 19 10 11
0 23 5 26 10 10 15 -23 24 -40 10 -20 -16 -40 -3 -24 16 8 10 26 14 48 12 32
-3 36 -6 37 -33z m64 -7 l13 -43 12 40 c7 22 19 41 28 43 14 3 13 -6 -7 -66
-13 -38 -29 -79 -35 -91 -12 -21 -51 -30 -51 -11 0 6 6 10 14 10 25 0 27 31 6
87 -24 63 -24 73 -7 73 8 0 20 -19 27 -42z m190 -23 c0 -51 -3 -65 -15 -65
-12 0 -15 13 -15 55 0 48 -2 55 -20 55 -16 0 -20 -7 -20 -38 0 -48 -20 -78
-46 -68 -18 7 -18 8 -1 17 12 7 17 23 17 59 l0 50 50 0 50 0 0 -65z m60 45 c0
-16 7 -20 30 -20 28 0 50 -22 50 -49 0 -22 -33 -41 -71 -41 l-39 0 0 65 c0 51
3 65 15 65 8 0 15 -9 15 -20z m190 10 c0 -5 -9 -10 -20 -10 -18 0 -20 -7 -20
-55 0 -42 -3 -55 -15 -55 -12 0 -15 13 -15 55 0 48 -2 55 -20 55 -11 0 -20 5
-20 10 0 6 25 10 55 10 30 0 55 -4 55 -10z m98 2 c6 -5 14 -33 17 -64 l6 -56
-38 0 c-56 -1 -73 7 -73 32 0 30 18 46 52 46 15 0 28 4 28 9 0 18 -22 23 -46
10 -28 -15 -42 -6 -24 16 13 16 57 20 78 7z m142 -2 c0 -5 -9 -10 -20 -10 -18
0 -20 -7 -20 -55 0 -42 -3 -55 -15 -55 -12 0 -15 13 -15 55 0 48 -2 55 -20 55
-11 0 -20 5 -20 10 0 6 25 10 55 10 30 0 55 -4 55 -10z m100 -15 c0 -20 5 -25
25 -25 20 0 25 5 25 25 0 16 6 25 15 25 12 0 15 -14 15 -66 0 -48 -3 -65 -12
-61 -7 2 -13 16 -13 30 1 23 -3 27 -27 27 -25 0 -28 -4 -28 -31 0 -58 -23 -25
-27 39 -3 51 -1 62 11 62 10 0 16 -9 16 -25z m210 6 c5 -11 10 -40 10 -65 l0
-45 -46 2 c-32 1 -50 7 -58 20 -16 25 4 51 43 55 31 3 40 15 20 28 -6 3 -22 1
-35 -7 -30 -16 -46 -2 -20 17 29 20 73 18 86 -5z m60 -36 c0 -48 2 -55 20 -55
18 0 20 7 20 55 0 42 3 55 15 55 12 0 15 -13 15 -55 0 -48 2 -55 20 -55 18 0
20 7 20 55 0 42 3 55 15 55 12 0 15 -14 15 -65 l0 -65 -85 0 -85 0 0 65 c0 51
3 65 15 65 12 0 15 -13 15 -55z m202 18 l3 -38 23 38 c36 58 52 49 52 -28 0
-51 -3 -65 -15 -65 -11 0 -15 11 -15 43 l0 42 -26 -42 c-38 -64 -54 -57 -54
22 0 50 3 65 14 65 10 0 16 -13 18 -37z m139 15 l12 -23 10 23 c6 12 19 22 29
22 19 0 19 -1 -1 -29 -12 -16 -21 -32 -21 -36 0 -4 9 -20 21 -36 16 -23 17
-29 5 -29 -8 0 -21 9 -30 21 l-14 21 -11 -21 c-7 -12 -18 -21 -26 -21 -20 0
-19 10 5 40 18 24 18 25 -1 57 -17 28 -18 33 -5 33 8 0 21 -10 27 -22z m169
-5 l0 -27 29 28 c38 36 61 31 31 -7 l-21 -27 21 -30 c25 -35 24 -35 44 -14 10
9 16 33 16 60 l0 44 45 0 45 0 0 -65 c0 -49 -3 -65 -14 -65 -10 0 -13 14 -13
52 2 43 -2 53 -16 56 -13 3 -17 -3 -17 -27 0 -16 -4 -41 -10 -55 -8 -22 -16
-26 -47 -26 -31 0 -42 6 -58 30 -25 38 -35 38 -35 0 0 -20 -5 -30 -15 -30 -12
0 -15 14 -15 65 0 51 3 65 15 65 10 0 15 -10 15 -27z m270 -39 c0 -48 -3 -65
-12 -62 -19 7 -21 128 -2 128 11 0 14 -16 14 -66z m130 51 c18 -22 4 -31 -24
-16 -24 13 -46 8 -46 -10 0 -5 9 -9 20 -9 11 0 20 -4 20 -10 0 -5 -9 -10 -20
-10 -21 0 -27 -24 -9 -36 6 -3 22 -1 35 7 30 16 46 2 20 -17 -46 -33 -96 -6
-96 51 0 18 7 41 16 49 20 20 68 21 84 1z m60 -10 c0 -20 5 -25 25 -25 20 0
25 5 25 25 0 16 6 25 15 25 12 0 15 -14 15 -65 0 -51 -3 -65 -15 -65 -10 0
-15 10 -15 30 0 25 -4 30 -25 30 -21 0 -25 -5 -25 -30 0 -20 -5 -30 -15 -30
-12 0 -15 14 -15 65 0 51 3 65 15 65 9 0 15 -9 15 -25z m210 15 c0 -5 -9 -10
-20 -10 -18 0 -20 -7 -20 -55 0 -42 -3 -55 -15 -55 -12 0 -15 13 -15 55 0 48
-2 55 -20 55 -11 0 -20 5 -20 10 0 6 25 10 55 10 30 0 55 -4 55 -10z m40 -55
c0 -47 -4 -65 -13 -65 -10 0 -13 17 -12 63 2 70 2 67 15 67 6 0 10 -28 10 -65z
m129 56 c8 -5 12 -18 9 -29 -3 -10 -1 -26 4 -35 5 -11 5 -24 -2 -37 -9 -16
-21 -20 -60 -20 l-50 0 0 65 0 65 43 0 c23 0 48 -4 56 -9z m198 -3 c13 -17 14
-90 1 -105 -6 -7 -30 -13 -54 -13 l-44 0 0 65 0 65 44 0 c24 0 48 -6 53 -12z
m157 -34 l19 -46 20 46 c13 31 26 46 38 46 17 0 19 -8 19 -65 0 -50 -3 -65
-14 -65 -9 0 -16 13 -19 33 l-3 32 -13 -32 c-7 -18 -19 -33 -27 -33 -8 0 -21
15 -29 33 l-14 32 -1 -32 c0 -23 -5 -33 -15 -33 -12 0 -15 14 -15 65 0 55 3
65 18 65 11 0 24 -16 36 -46z m216 27 c5 -11 10 -40 10 -64 l0 -45 -37 0 c-56
-1 -73 7 -73 32 0 30 18 46 52 46 15 0 28 4 28 9 0 18 -22 23 -46 10 -30 -16
-46 -2 -20 17 29 20 73 18 86 -5z m135 -4 c32 -46 6 -107 -46 -107 -24 0 -29
-4 -29 -25 0 -16 -6 -25 -15 -25 -12 0 -15 17 -15 89 l0 88 45 1 c35 1 48 -3
60 -21z m65 -4 l1 -28 22 28 c13 15 31 27 42 27 17 0 16 -3 -8 -28 l-26 -27
24 -30 c28 -35 31 -45 11 -45 -8 0 -26 15 -40 33 l-26 32 0 -32 c0 -23 -5 -33
-15 -33 -12 0 -15 14 -15 65 0 51 3 65 15 65 10 0 15 -10 15 -27z m194 5 c27
-38 20 -48 -29 -48 -25 0 -45 -4 -45 -9 0 -18 29 -32 54 -25 28 7 37 -10 10
-20 -48 -18 -94 10 -94 59 0 59 73 88 104 43z m126 12 c0 -5 -9 -10 -20 -10
-18 0 -20 -7 -20 -55 0 -42 -3 -55 -15 -55 -12 0 -15 13 -15 55 0 48 -2 55
-20 55 -11 0 -20 5 -20 10 0 6 25 10 55 10 30 0 55 -4 55 -10z m50 -27 l1 -38
22 37 c12 21 30 38 40 38 14 0 17 -10 17 -65 0 -50 -3 -65 -14 -65 -10 0 -16
13 -18 38 l-3 37 -23 -37 c-35 -56 -50 -49 -54 23 -3 65 -2 69 19 69 8 0 13
-13 13 -37z m140 11 c0 -21 4 -25 23 -22 16 2 21 9 19 26 -3 17 2 22 17 22 19
0 21 -6 21 -65 0 -50 -3 -65 -14 -65 -9 0 -16 12 -18 28 -2 19 -9 28 -25 30
-20 3 -23 -1 -23 -27 0 -20 -5 -31 -14 -31 -11 0 -15 17 -18 65 -3 57 -1 65
15 65 12 0 17 -8 17 -26z m235 -13 c12 -37 18 -34 29 12 7 28 36 38 36 13 0
-28 -53 -158 -66 -163 -8 -3 -22 -2 -31 2 -16 7 -17 8 -1 12 26 7 29 31 11 89
-15 49 -20 54 -45 54 -27 0 -28 -1 -28 -55 0 -48 -2 -55 -20 -55 -18 0 -20 7
-20 65 l0 66 62 -3 c60 -3 62 -4 73 -37z m299 -7 c10 -74 8 -84 -14 -84 -18 0
-20 7 -20 55 0 48 -2 55 -20 55 -18 0 -20 -7 -20 -55 0 -48 -2 -55 -20 -55
-18 0 -20 7 -20 65 l0 65 54 0 53 0 7 -46z m131 23 c32 -46 6 -107 -47 -107
-27 0 -30 -3 -26 -25 4 -19 1 -25 -13 -25 -17 0 -19 9 -19 89 l0 88 45 1 c35
1 48 -3 60 -21z m141 -11 c14 -29 15 -37 3 -62 -19 -40 -79 -47 -103 -12 -35
49 -7 108 50 108 29 0 37 -5 50 -34z m134 -21 c0 -30 5 -55 10 -55 6 0 10 -13
10 -30 0 -23 -4 -30 -20 -30 -13 0 -20 7 -20 20 0 16 -7 20 -35 20 -28 0 -35
-4 -35 -20 0 -13 -7 -20 -18 -20 -22 0 -28 46 -8 66 8 8 18 34 22 59 l6 45 44
0 44 0 0 -55z m130 29 c6 -14 10 -42 10 -63 l0 -38 -50 -2 c-44 -1 -52 2 -59
22 -11 29 11 55 50 59 22 2 26 6 19 18 -7 12 -12 12 -34 0 -30 -16 -45 -7 -26
15 7 8 28 15 46 15 28 0 36 -5 44 -26z m73 4 l16 -23 0 23 c1 15 7 22 20 22
14 0 18 -5 14 -20 -3 -11 0 -20 5 -20 6 0 16 9 22 20 6 11 20 20 31 20 19 0
19 -1 -3 -30 l-22 -30 22 -30 c27 -35 27 -40 4 -40 -9 0 -25 12 -34 28 l-17
27 -1 -27 c0 -21 -5 -28 -20 -28 -15 0 -20 7 -20 28 l-1 27 -17 -27 c-9 -16
-25 -28 -34 -28 -23 0 -23 6 3 41 l20 29 -21 30 c-21 29 -21 30 -2 30 11 0 27
-10 35 -22z m235 10 c7 -7 12 -34 12 -60 0 -54 10 -60 35 -22 15 23 15 30 4
53 -7 14 -15 29 -17 34 -8 15 28 6 37 -10 10 -17 12 -17 25 0 8 10 22 17 31
15 15 -3 14 -6 -5 -31 l-22 -27 22 -35 c21 -34 21 -35 2 -35 -11 0 -23 7 -26
16 -6 16 -8 16 -24 0 -22 -19 -141 -23 -160 -4 -29 29 -2 68 47 68 12 0 21 5
21 10 0 16 -30 24 -43 11 -15 -15 -27 -14 -27 3 0 26 66 36 88 14z m322 2 c0
-5 -11 -10 -25 -10 -24 0 -25 -3 -25 -55 0 -42 -3 -55 -15 -55 -12 0 -15 13
-15 55 0 48 -2 55 -20 55 -11 0 -20 5 -20 10 0 6 27 10 60 10 33 0 60 -4 60
-10z m99 1 c10 -6 16 -30 18 -65 l2 -56 -49 0 c-39 0 -52 4 -60 19 -13 25 -13
27 6 45 8 9 26 16 40 16 25 0 32 14 13 26 -6 3 -16 1 -22 -5 -15 -15 -37 -14
-37 3 0 24 60 35 89 17z m131 -28 l13 -38 12 35 c6 19 19 36 28 38 10 2 17 1
17 -2 0 -12 -53 -152 -62 -163 -12 -15 -48 -17 -48 -3 0 6 7 10 15 10 21 0 19
44 -5 108 -19 49 -19 52 -2 52 12 0 23 -13 32 -37z m191 -5 c0 -24 2 -53 5
-65 3 -18 -1 -23 -16 -23 -18 0 -20 7 -20 55 0 51 -2 55 -24 55 -23 0 -24 -3
-21 -55 3 -49 1 -55 -16 -55 -17 0 -19 8 -19 65 l0 65 55 0 55 0 1 -42z m127
30 c7 -7 12 -30 12 -53 0 -48 -13 -65 -52 -65 -23 0 -28 -4 -28 -25 0 -19 -5
-25 -21 -25 -18 0 -20 5 -15 48 2 26 5 66 5 90 l1 42 43 0 c24 0 48 -5 55 -12z
m132 -7 c5 -11 10 -40 10 -65 l0 -46 -39 0 c-54 0 -71 8 -71 34 0 30 18 46 52
46 15 0 28 4 28 9 0 18 -22 23 -46 10 -28 -15 -42 -6 -24 16 18 22 77 19 90
-4z m136 7 c5 -7 9 -34 11 -60 2 -43 0 -48 -21 -54 -43 -10 -91 -1 -90 19 1 9
2 37 3 62 l1 45 44 0 c25 0 48 -6 52 -12z m144 -53 c0 -51 -3 -65 -15 -65 -12
0 -15 13 -15 55 0 74 -23 75 -36 3 -7 -44 -13 -54 -31 -56 -26 -4 -28 5 -8 32
8 11 15 37 15 58 l0 38 45 0 45 0 0 -65z m128 53 c7 -7 12 -22 12 -35 0 -20
-5 -23 -41 -23 -33 0 -40 -3 -37 -17 3 -17 24 -21 57 -12 7 2 16 -1 18 -8 6
-17 -44 -28 -76 -17 -21 8 -27 17 -29 46 -5 53 12 78 51 78 18 0 38 -5 45 -12z
m62 -13 c0 -20 5 -25 25 -25 20 0 25 5 25 25 0 16 6 25 15 25 12 0 15 -14 15
-65 0 -51 -3 -65 -15 -65 -10 0 -15 10 -15 30 0 25 -4 30 -25 30 -21 0 -25 -5
-25 -30 0 -20 -5 -30 -15 -30 -12 0 -15 14 -15 65 0 51 3 65 15 65 9 0 15 -9
15 -25z m140 0 c0 -20 5 -25 25 -25 20 0 25 5 25 25 0 16 6 25 15 25 12 0 15
-14 15 -65 0 -51 -3 -65 -15 -65 -10 0 -15 10 -15 30 0 25 -4 30 -25 30 -21 0
-25 -5 -25 -30 0 -20 -5 -30 -15 -30 -12 0 -15 14 -15 65 0 51 3 65 15 65 9 0
15 -9 15 -25z m140 -40 c0 -58 -2 -65 -20 -65 -18 0 -20 7 -20 65 0 58 2 65
20 65 18 0 20 -7 20 -65z m-2782 -56 c-3 -21 -32 -48 -42 -39 -2 3 -2 17 1 33
7 34 46 40 41 6z m-1168 -843 c0 -24 3 -58 6 -75 5 -24 3 -31 -10 -31 -9 0
-16 7 -16 15 0 10 -10 15 -30 15 -20 0 -30 -5 -30 -15 0 -8 -7 -15 -15 -15 -9
0 -15 9 -15 25 0 14 4 25 9 25 5 0 11 23 15 50 l7 50 39 0 40 0 0 -44z m560
34 c0 -5 -7 -10 -16 -10 -8 0 -12 5 -9 10 3 6 10 10 16 10 5 0 9 -4 9 -10z
m-402 -34 c-11 -8 -18 -26 -18 -45 0 -17 -4 -31 -10 -31 -5 0 -10 15 -10 34 0
21 -6 36 -16 40 -11 4 -14 0 -12 -15 2 -17 -3 -23 -21 -26 -35 -5 -39 -13 -7
-13 16 0 25 -4 21 -10 -9 -14 -48 -13 -63 2 -15 15 -16 50 -1 65 6 6 43 11 83
12 61 0 68 -2 54 -13z m90 -29 c4 -46 22 -39 22 9 0 32 2 34 35 34 35 0 35 0
35 -45 0 -33 -4 -45 -15 -45 -8 0 -14 3 -14 8 1 4 1 20 0 36 -1 32 -9 31 -16
-3 -2 -11 -7 -26 -10 -31 -8 -13 -102 -13 -109 -1 -10 16 5 41 25 41 10 0 19
5 19 10 0 6 -11 8 -27 4 -26 -7 -27 -6 -14 10 9 10 25 16 40 14 22 -3 26 -9
29 -41z m132 29 c0 -8 10 -16 23 -18 16 -2 22 -10 22 -28 0 -22 -4 -25 -35
-25 -34 0 -35 1 -38 43 -2 33 0 42 12 42 9 0 16 -6 16 -14z m90 -6 c0 -11 5
-20 10 -20 9 0 14 14 11 33 0 4 6 7 14 7 11 0 15 -12 15 -46 0 -32 -4 -44 -12
-41 -7 2 -12 10 -10 16 1 6 -5 11 -13 11 -8 0 -15 -7 -15 -15 0 -8 -7 -15 -15
-15 -11 0 -15 12 -15 45 0 33 4 45 15 45 8 0 15 -9 15 -20z m90 -25 c0 -32 -4
-45 -14 -45 -10 0 -14 13 -13 45 0 30 5 45 14 45 9 0 13 -14 13 -45z m40 10
c0 -19 5 -35 10 -35 6 0 10 16 10 35 0 24 5 35 15 35 11 0 15 -11 15 -41 0
-24 4 -38 10 -34 6 3 10 22 10 41 0 19 5 34 10 34 6 0 10 -20 10 -45 l0 -45
-60 0 -59 0 2 45 c2 55 27 64 27 10z m175 14 c8 -23 -11 -42 -32 -34 -7 2 -13
0 -13 -5 0 -5 12 -10 28 -12 22 -4 24 -6 9 -12 -30 -14 -67 2 -67 28 0 41 11
56 40 56 20 0 31 -6 35 -21z"/>
<path d="M3524 3196 c-96 -42 -141 -233 -94 -399 24 -84 100 -134 187 -124 56
6 91 31 123 88 21 38 25 60 28 152 5 123 -7 186 -45 236 -44 57 -129 77 -199
47z"/>
<path d="M7500 3191 c-19 -10 -48 -40 -65 -66 -29 -47 -30 -51 -30 -179 0
-117 2 -136 23 -178 35 -70 72 -93 152 -93 80 0 117 23 152 93 20 42 23 61 23
172 0 111 -3 130 -23 173 -43 86 -149 123 -232 78z"/>
<path d="M4114 2878 c3 -24 5 -78 5 -120 l1 -78 100 0 c145 0 190 31 190 131
0 33 -6 47 -34 75 l-34 34 -117 0 -117 0 6 -42z"/>
<path d="M4870 3125 c-7 -16 -29 -77 -50 -135 -21 -58 -41 -113 -45 -122 -7
-17 2 -18 105 -18 111 0 111 0 104 23 -3 12 -28 81 -54 152 -47 127 -48 129
-60 100z"/>
<path d="M6090 2800 l0 -120 115 0 c112 0 115 1 146 28 27 24 33 37 37 85 4
54 3 58 -31 92 l-35 35 -116 0 -116 0 0 -120z"/>
<path d="M1078 1625 c-3 -61 -2 -65 19 -65 25 0 53 34 53 65 0 29 -28 65 -50
65 -16 0 -19 -10 -22 -65z"/>
<path d="M2020 1635 c-11 -13 -8 -15 20 -15 21 0 30 4 28 13 -7 18 -33 20 -48
2z"/>
<path d="M2223 1605 c-10 -44 -9 -45 13 -45 22 0 24 4 24 45 0 31 -4 45 -13
45 -8 0 -18 -19 -24 -45z"/>
<path d="M2424 1605 c-10 -43 -10 -45 13 -45 21 0 23 5 23 45 0 30 -4 45 -13
45 -7 0 -17 -20 -23 -45z"/>
<path d="M2984 1589 c-9 -15 12 -33 30 -26 9 4 16 13 16 22 0 17 -35 21 -46 4z"/>
<path d="M3314 1589 c-9 -15 12 -33 30 -26 9 4 16 13 16 22 0 17 -35 21 -46 4z"/>
<path d="M3547 1643 c-15 -14 -6 -23 23 -23 22 0 28 4 24 15 -6 15 -35 20 -47
8z"/>
<path d="M4012 1633 c2 -10 13 -19 26 -21 17 -3 22 2 22 17 0 16 -6 21 -26 21
-19 0 -25 -5 -22 -17z"/>
<path d="M4344 1636 c-12 -31 0 -71 23 -74 25 -4 38 26 29 64 -7 27 -43 34
-52 10z"/>
<path d="M4480 1634 c0 -10 7 -14 22 -12 32 5 35 28 4 28 -17 0 -26 -5 -26
-16z"/>
<path d="M4480 1580 c0 -15 7 -20 25 -20 18 0 25 5 25 20 0 15 -7 20 -25 20
-18 0 -25 -5 -25 -20z"/>
<path d="M4762 1638 c-28 -28 -2 -88 33 -74 12 4 15 16 13 43 -3 40 -23 54
-46 31z"/>
<path d="M4994 1636 c-10 -27 1 -71 18 -74 25 -5 43 35 29 64 -12 26 -39 32
-47 10z"/>
<path d="M6224 1637 c-3 -9 -4 -28 -2 -44 2 -20 8 -28 23 -28 17 0 20 7 20 40
0 30 -4 41 -18 43 -9 2 -20 -3 -23 -11z"/>
<path d="M6352 1633 c2 -10 13 -19 26 -21 17 -3 22 2 22 17 0 16 -6 21 -26 21
-19 0 -25 -5 -22 -17z"/>
<path d="M6672 1638 c-30 -30 1 -94 33 -68 25 20 13 80 -15 80 -3 0 -11 -5
-18 -12z"/>
<path d="M6800 1635 c0 -9 9 -15 25 -15 16 0 25 6 25 15 0 9 -9 15 -25 15 -16
0 -25 -6 -25 -15z"/>
<path d="M6800 1580 c0 -17 5 -21 28 -18 16 2 27 9 27 18 0 9 -11 16 -27 18
-23 3 -28 -1 -28 -18z"/>
<path d="M6934 1589 c-9 -15 12 -33 30 -26 9 4 16 13 16 22 0 17 -35 21 -46 4z"/>
<path d="M7204 1589 c-9 -15 12 -33 30 -26 9 4 16 13 16 22 0 17 -35 21 -46 4z"/>
<path d="M7534 1589 c-9 -15 12 -33 30 -26 9 4 16 13 16 22 0 17 -35 21 -46 4z"/>
<path d="M7860 1586 c0 -19 14 -28 34 -20 25 10 19 34 -9 34 -15 0 -25 -6 -25
-14z"/>
<path d="M8264 1636 c-3 -8 -4 -27 -2 -43 2 -20 8 -28 23 -28 26 0 44 47 25
69 -16 20 -39 21 -46 2z"/>
<path d="M8394 1589 c-3 -6 -2 -15 3 -20 13 -13 43 -1 43 17 0 16 -36 19 -46
3z"/>
<path d="M1417 1383 c-14 -13 -7 -74 8 -79 21 -8 45 14 45 40 0 34 -34 59 -53
39z"/>
<path d="M1550 1375 c-11 -13 -8 -15 18 -15 24 0 30 4 26 15 -4 8 -12 15 -19
15 -7 0 -18 -7 -25 -15z"/>
<path d="M2050 1325 c0 -22 4 -26 23 -23 14 2 22 10 22 23 0 13 -8 21 -22 23
-19 3 -23 -1 -23 -23z"/>
<path d="M2280 1320 c0 -22 20 -26 38 -8 19 19 14 28 -13 28 -18 0 -25 -5 -25
-20z"/>
<path d="M2720 1326 c0 -19 14 -28 34 -20 25 10 19 34 -9 34 -15 0 -25 -6 -25
-14z"/>
<path d="M4130 1375 c0 -9 9 -15 25 -15 16 0 25 6 25 15 0 9 -9 15 -25 15 -16
0 -25 -6 -25 -15z"/>
<path d="M4130 1320 c0 -17 5 -21 28 -18 16 2 27 9 27 18 0 9 -11 16 -27 18
-23 3 -28 -1 -28 -18z"/>
<path d="M4330 1375 c0 -11 7 -15 23 -13 12 2 22 8 22 13 0 6 -10 11 -22 13
-16 2 -23 -2 -23 -13z"/>
<path d="M4330 1320 c0 -15 7 -20 25 -20 18 0 25 5 25 20 0 15 -7 20 -25 20
-18 0 -25 -5 -25 -20z"/>
<path d="M4700 1326 c0 -22 19 -30 35 -16 22 18 18 30 -10 30 -15 0 -25 -6
-25 -14z"/>
<path d="M4837 1383 c-14 -13 -7 -74 8 -79 21 -8 45 14 45 40 0 34 -34 59 -53
39z"/>
<path d="M5096 1375 c-4 -11 2 -15 24 -15 22 0 28 4 24 15 -4 8 -14 15 -24 15
-10 0 -20 -7 -24 -15z"/>
<path d="M6074 1376 c-10 -27 1 -71 18 -74 25 -5 43 35 29 64 -12 26 -39 32
-47 10z"/>
<path d="M6212 1378 c-28 -28 -2 -88 33 -74 12 4 15 16 13 43 -3 40 -23 54
-46 31z"/>
<path d="M6360 1368 c0 -13 -3 -33 -6 -45 -5 -19 -2 -23 15 -23 18 0 21 6 21
45 0 33 -4 45 -15 45 -9 0 -15 -9 -15 -22z"/>
<path d="M6480 1326 c0 -22 19 -30 35 -16 22 18 18 30 -10 30 -15 0 -25 -6
-25 -14z"/>
<path d="M6794 1329 c-9 -15 12 -33 30 -26 9 4 16 13 16 22 0 17 -35 21 -46 4z"/>
<path d="M7220 1319 c0 -25 33 -22 38 4 2 12 -3 17 -17 17 -15 0 -21 -6 -21
-21z"/>
<path d="M7664 1376 c-10 -26 1 -71 18 -74 20 -4 32 29 24 64 -7 26 -33 33
-42 10z"/>
<path d="M7794 1329 c-11 -18 13 -34 31 -19 8 7 15 16 15 21 0 13 -38 11 -46
-2z"/>
<path d="M7930 1375 c0 -11 7 -15 23 -13 12 2 22 8 22 13 0 6 -10 11 -22 13
-16 2 -23 -2 -23 -13z"/>
<path d="M7930 1320 c0 -15 7 -20 25 -20 18 0 25 5 25 20 0 15 -7 20 -25 20
-18 0 -25 -5 -25 -20z"/>
<path d="M8207 1384 c-14 -14 -6 -24 19 -24 16 0 24 5 22 13 -5 14 -31 21 -41
11z"/>
<path d="M4598 430 c-3 -33 0 -40 14 -40 14 0 18 8 18 40 0 28 -4 40 -14 40
-9 0 -15 -14 -18 -40z"/>
<path d="M4700 430 c0 -5 7 -10 15 -10 8 0 15 5 15 10 0 6 -7 10 -15 10 -8 0
-15 -4 -15 -10z"/>
<path d="M4865 400 c-3 -5 -2 -10 4 -10 5 0 13 5 16 10 3 6 2 10 -4 10 -5 0
-13 -4 -16 -10z"/>
<path d="M5040 395 c0 -9 6 -12 15 -9 8 4 15 10 15 15 0 5 -7 9 -15 9 -8 0
-15 -7 -15 -15z"/>
<path d="M5385 430 c-3 -5 1 -10 9 -10 9 0 16 5 16 10 0 6 -4 10 -9 10 -6 0
-13 -4 -16 -10z"/>
</g>
</svg>
