<?xml version="1.0" standalone="no"?>
<!DOCTYPE svg PUBLIC "-//W3C//DTD SVG 20010904//EN"
 "http://www.w3.org/TR/2001/REC-SVG-20010904/DTD/svg10.dtd">
<svg version="1.0" xmlns="http://www.w3.org/2000/svg"
 width="928.000000pt" height="755.000000pt" viewBox="0 0 928.000000 755.000000"
 preserveAspectRatio="xMidYMid meet">

<g transform="translate(0.000000,755.000000) scale(0.100000,-0.100000)"
fill="#000000" stroke="none">
<path d="M0 3775 l0 -3775 555 0 555 0 2 2937 3 2938 24 34 c47 66 -243 61
3493 61 3296 0 3404 -1 3438 -19 20 -10 44 -36 57 -61 l23 -43 0 -2924 0
-2923 565 0 565 0 0 3775 0 3775 -4640 0 -4640 0 0 -3775z m4584 3628 c27 -20
56 -74 56 -103 0 -17 -7 -20 -40 -20 -32 0 -40 4 -40 18 0 59 -104 89 -142 42
-10 -12 -18 -28 -18 -35 0 -20 34 -44 92 -64 117 -40 148 -71 148 -149 0 -84
-96 -135 -209 -111 -64 14 -108 49 -117 94 -9 48 -8 49 26 48 49 -2 50 -2 50
-21 0 -59 132 -84 161 -31 23 44 5 64 -86 99 -114 42 -136 62 -142 127 -5 45
-2 54 24 83 52 58 174 70 237 23z m-1054 -8 l0 -34 -66 -3 -67 -3 2 -187 2
-188 -45 0 -46 0 0 190 0 190 -68 0 -68 0 4 35 4 35 174 0 174 0 0 -35z m230
-100 c30 -27 50 -80 50 -131 l0 -44 -105 0 c-116 0 -126 -7 -81 -54 28 -31 71
-34 106 -6 31 24 39 24 61 4 26 -23 8 -51 -48 -76 -33 -15 -56 -18 -87 -14
-92 14 -136 70 -136 173 0 71 22 119 70 151 29 20 45 23 92 20 38 -3 64 -11
78 -23z m307 5 c41 -25 52 -64 55 -207 l3 -113 -42 0 c-25 0 -43 5 -43 11 0 8
-4 8 -13 1 -25 -21 -92 -25 -125 -8 -47 24 -66 58 -59 107 9 66 43 91 140 104
38 5 47 10 47 26 0 28 -43 46 -75 31 -14 -6 -25 -18 -25 -27 0 -11 -11 -15
-44 -15 -41 0 -44 2 -39 23 19 77 142 115 220 67z m693 -104 c0 -142 9 -163
63 -152 17 3 33 9 36 12 3 3 8 63 11 132 l5 127 40 3 40 3 3 -171 4 -171 -59
2 c-32 2 -68 -1 -80 -5 -38 -12 -102 12 -123 47 -17 27 -20 51 -20 165 l0 132
40 0 40 0 0 -124z m541 17 l35 -108 34 108 33 107 43 0 43 0 -35 -97 c-20 -54
-48 -131 -62 -170 -25 -70 -27 -73 -58 -73 -31 0 -32 1 -67 103 -63 179 -76
213 -77 191 0 -17 -8 -23 -36 -27 -61 -10 -64 -17 -64 -148 l0 -119 -40 0 -40
0 0 169 0 169 128 1 128 1 35 -107z m432 77 c34 -30 57 -87 57 -144 l0 -26
-109 0 c-103 0 -109 -1 -104 -19 15 -59 86 -80 130 -39 20 19 26 20 48 8 31
-17 32 -30 3 -58 -52 -47 -150 -52 -204 -9 -76 59 -84 204 -16 272 35 35 56
44 114 44 39 1 53 -4 81 -29z m167 -67 c18 -54 34 -99 35 -101 1 -1 17 42 34
98 l32 100 40 0 c21 0 39 -4 39 -10 0 -5 -16 -56 -36 -112 -20 -57 -42 -125
-51 -153 -8 -27 -28 -78 -44 -111 -31 -66 -62 -88 -115 -82 -24 2 -29 8 -32
35 -3 29 -1 32 30 35 26 2 37 10 49 36 18 35 18 35 -85 320 l-15 42 43 0 44 0
32 -97z m-2750 -758 c0 -96 -3 -115 -15 -115 -12 0 -15 19 -15 115 0 96 3 115
15 115 12 0 15 -19 15 -115z m78 0 c2 -109 1 -115 -18 -115 -19 0 -20 7 -20
115 0 103 2 115 18 115 15 0 17 -13 20 -115z m302 77 c0 -38 0 -38 35 -34 19
2 42 -1 50 -8 24 -20 30 -78 12 -116 -16 -33 -18 -34 -72 -33 l-55 2 0 113 c0
95 3 114 15 114 11 0 15 -11 15 -38z m1390 23 c0 -8 -8 -15 -19 -15 -10 0 -21
-9 -24 -20 -4 -15 0 -20 14 -20 10 0 19 -4 19 -10 0 -5 -7 -10 -15 -10 -12 0
-15 -14 -15 -70 0 -63 -2 -70 -20 -70 -18 0 -20 7 -20 69 0 46 -4 71 -12 75
-10 5 -10 7 0 12 6 3 12 12 12 20 0 9 5 24 10 35 13 24 70 27 70 4z m-1970
-10 c0 -10 -11 -15 -35 -15 l-35 0 0 -95 c0 -78 -3 -95 -15 -95 -12 0 -15 17
-15 95 l0 95 -35 0 c-24 0 -35 5 -35 15 0 12 16 15 85 15 69 0 85 -3 85 -15z
m2760 0 c0 -8 -7 -15 -15 -15 -8 0 -15 7 -15 15 0 8 7 15 15 15 8 0 15 -7 15
-15z m-1660 -25 c0 -11 7 -20 15 -20 8 0 15 -4 15 -10 0 -5 -7 -10 -15 -10
-12 0 -15 -13 -15 -55 0 -42 3 -55 15 -55 8 0 15 -7 15 -15 0 -21 -56 -20 -64
1 -3 9 -6 40 -6 70 0 41 -4 54 -15 54 -8 0 -15 5 -15 10 0 6 7 10 15 10 8 0
15 9 15 20 0 13 7 20 20 20 13 0 20 -7 20 -20z m1740 0 c0 -11 7 -20 15 -20 8
0 15 -4 15 -10 0 -5 -7 -10 -15 -10 -12 0 -15 -13 -15 -55 0 -42 3 -55 15 -55
8 0 15 -7 15 -16 0 -11 -8 -14 -27 -12 -27 3 -28 5 -31 71 -2 51 -6 67 -17 67
-8 0 -15 5 -15 10 0 6 7 10 15 10 8 0 15 9 15 20 0 11 7 20 15 20 8 0 15 -9
15 -20z m330 0 c0 -11 7 -20 15 -20 8 0 15 -4 15 -10 0 -5 -7 -10 -15 -10 -12
0 -15 -13 -15 -55 0 -42 3 -55 15 -55 8 0 15 -7 15 -16 0 -11 -8 -14 -27 -12
-27 3 -28 5 -31 71 -2 51 -6 67 -17 67 -8 0 -15 5 -15 10 0 6 7 10 15 10 8 0
15 9 15 20 0 11 7 20 15 20 8 0 15 -9 15 -20z m-3046 -42 c9 -12 16 -33 16
-45 0 -21 -5 -23 -51 -23 -43 0 -50 -3 -47 -17 3 -14 13 -18 51 -16 49 1 60
-9 28 -27 -36 -19 -78 -12 -100 16 -43 55 -11 134 54 134 24 0 39 -7 49 -22z
m374 10 c5 -7 12 -43 14 -79 l4 -67 -53 -1 c-54 0 -83 16 -83 46 0 28 31 53
67 53 21 0 33 5 33 14 0 22 -31 28 -57 11 -31 -21 -50 -9 -27 16 20 22 86 26
102 7z m342 -8 c13 -13 20 -33 20 -60 0 -51 -27 -80 -74 -80 -25 0 -40 7 -55
26 -43 55 -11 134 55 134 21 0 42 -8 54 -20z m82 -42 c3 -58 5 -63 27 -66 31
-5 41 12 41 76 0 39 4 52 15 52 12 0 15 -15 15 -79 l0 -78 -52 -2 c-28 0 -57
4 -65 10 -19 17 -18 149 2 149 10 0 15 -16 17 -62z m337 15 c8 -24 18 -43 22
-43 4 0 12 20 18 45 9 34 16 45 31 45 18 0 17 -7 -17 -102 -36 -105 -45 -118
-75 -118 -25 0 -23 26 2 33 26 7 25 30 -5 111 -30 79 -30 78 -8 74 9 -2 23
-22 32 -45z m225 32 c33 -34 29 -113 -8 -137 -22 -15 -76 -8 -96 12 -27 27
-27 89 0 118 25 26 81 30 104 7z m88 -47 c3 -58 5 -63 27 -66 31 -5 41 12 41
76 0 39 4 52 15 52 12 0 15 -15 15 -79 l0 -78 -52 -2 c-28 0 -57 4 -65 10 -19
17 -18 149 2 149 10 0 15 -16 17 -62z m218 48 c0 -8 -10 -16 -22 -18 -21 -3
-23 -9 -26 -65 -3 -55 -6 -63 -22 -63 -18 0 -20 7 -20 80 l0 80 45 0 c32 0 45
-4 45 -14z m304 -2 c11 -11 16 -34 16 -78 l0 -63 -52 -1 c-57 -1 -78 10 -78
41 0 32 29 57 67 57 35 0 42 10 20 28 -10 8 -21 7 -42 -4 -34 -17 -54 -5 -30
20 21 20 79 21 99 0z m86 -39 l18 -50 11 28 c6 15 14 39 17 52 4 16 13 25 25
25 17 0 17 -5 -9 -77 -16 -43 -35 -79 -43 -81 -9 -2 -22 20 -38 65 -13 38 -26
74 -29 82 -3 8 1 12 13 10 12 -3 25 -22 35 -54z m229 29 c43 -55 11 -134 -55
-134 -46 0 -74 29 -74 78 0 77 84 113 129 56z m83 -36 c3 -58 5 -63 27 -66 31
-5 41 12 41 76 0 39 4 52 15 52 12 0 15 -15 15 -79 l0 -78 -52 -2 c-28 0 -57
4 -65 10 -19 17 -18 149 2 149 10 0 15 -16 17 -62z m218 47 c0 -7 -10 -15 -22
-17 -21 -3 -23 -9 -26 -65 -3 -55 -6 -63 -22 -63 -18 0 -20 7 -20 79 l0 78 45
1 c32 1 45 -3 45 -13z m50 -65 c0 -64 -3 -80 -15 -80 -12 0 -15 16 -15 80 0
64 3 80 15 80 12 0 15 -16 15 -80z m236 72 c15 -10 34 -47 34 -66 0 -12 -11
-16 -49 -16 -28 0 -52 -4 -55 -9 -11 -17 24 -34 59 -28 25 4 35 2 35 -8 0 -30
-81 -34 -110 -5 -27 27 -27 89 0 118 20 22 64 29 86 14z m338 -8 c18 -17 32
-62 23 -71 -4 -3 -29 -5 -57 -4 -51 1 -57 -3 -41 -28 7 -10 20 -12 50 -7 32 5
41 3 41 -8 0 -31 -80 -36 -110 -6 -27 27 -27 89 0 118 24 26 72 29 94 6z m158
4 c12 -9 18 -33 20 -80 l3 -67 -60 2 c-55 2 -60 4 -69 29 -13 37 14 68 61 68
23 0 33 5 33 15 0 18 -56 21 -62 3 -3 -7 -12 -9 -22 -5 -18 7 -18 8 -1 27 21
23 73 27 97 8z"/>
<path d="M3623 7238 c-31 -41 -25 -48 42 -48 36 0 65 3 65 8 0 4 -7 18 -16 30
-17 25 -75 31 -91 10z"/>
<path d="M3938 7116 c-40 -30 -10 -84 39 -71 40 10 53 24 53 56 0 27 -3 29
-37 29 -21 0 -46 -7 -55 -14z"/>
<path d="M5596 7228 c-9 -12 -16 -26 -16 -30 0 -5 29 -8 65 -8 l66 0 -16 30
c-13 24 -22 30 -50 30 -24 0 -39 -7 -49 -22z"/>
<path d="M3534 6466 c-3 -8 -4 -29 -2 -48 3 -29 6 -33 32 -33 24 0 31 5 37 29
5 16 4 37 -2 48 -11 21 -57 24 -65 4z"/>
<path d="M3008 6479 c-31 -18 -22 -39 17 -39 19 0 35 4 35 9 0 8 -28 42 -33
41 -1 0 -10 -5 -19 -11z"/>
<path d="M3383 6423 c-7 -2 -13 -14 -13 -24 0 -31 54 -22 58 9 3 22 -14 28
-45 15z"/>
<path d="M3715 6476 c-11 -8 -18 -26 -18 -46 0 -59 61 -74 78 -20 15 46 -26
91 -60 66z"/>
<path d="M4345 6451 c-9 -43 10 -73 43 -69 25 3 27 7 27 48 0 43 -1 45 -32 48
-28 3 -32 0 -38 -27z"/>
<path d="M4971 6421 c-18 -12 -7 -41 17 -41 21 0 42 18 42 37 0 15 -38 17 -59
4z"/>
<path d="M5280 6470 c-26 -26 -26 -65 2 -84 33 -23 58 -5 58 44 0 51 -29 71
-60 40z"/>
<path d="M5892 6476 c-25 -31 -23 -36 12 -36 29 0 36 4 36 19 0 22 -35 34 -48
17z"/>
<path d="M6207 6460 c-4 -17 0 -20 33 -20 33 0 37 3 33 20 -4 14 -14 20 -33
20 -19 0 -29 -6 -33 -20z"/>
<path d="M6374 6416 c-14 -11 -16 -18 -8 -26 19 -19 59 -8 62 18 4 26 -23 30
-54 8z"/>
<path d="M8020 5935 c0 -2 10 -10 23 -16 20 -11 21 -11 8 4 -13 16 -31 23 -31
12z"/>
<path d="M1197 5923 c-4 -3 -7 -11 -7 -17 0 -7 3 -7 8 0 4 7 16 14 27 17 19 5
19 5 -1 6 -11 0 -24 -2 -27 -6z"/>
<path d="M1159 5893 c-13 -16 -12 -17 4 -4 16 13 21 21 13 21 -2 0 -10 -8 -17
-17z"/>
<path d="M8072 5894 c-7 -8 -8 -14 -3 -14 10 0 25 19 20 25 -2 1 -10 -3 -17
-11z"/>
<path d="M1135 2910 c0 -1603 1 -2259 2 -1457 2 801 2 2113 0 2915 -1 801 -2
145 -2 -1458z"/>
<path d="M2128 5813 c-10 -2 -18 -8 -18 -13 0 -5 6 -7 14 -4 11 4 13 -7 11
-54 -2 -32 0 -64 5 -71 11 -19 21 1 23 48 1 33 3 37 13 23 9 -13 9 -19 1 -24
-8 -5 -7 -8 4 -8 9 0 19 -6 22 -14 3 -8 14 -19 25 -25 17 -9 18 -6 16 35 -2
36 0 44 14 44 10 0 13 -3 7 -8 -9 -6 -11 -22 -5 -47 1 -5 2 -12 2 -15 0 -3 23
-4 51 -3 95 2 94 2 77 13 -13 9 -13 10 0 10 10 0 11 3 4 8 -13 8 -15 44 -2 36
4 -3 8 1 8 8 0 8 4 6 11 -4 5 -10 9 -30 7 -44 -2 -15 3 -29 10 -31 7 -3 12 6
13 24 2 51 4 56 19 60 13 4 13 3 0 -6 -8 -6 -10 -11 -4 -11 14 0 16 -50 2 -67
-6 -7 -5 -14 2 -18 5 -3 10 0 10 8 0 8 8 17 18 19 14 4 17 13 14 40 -2 21 1
39 8 43 9 6 10 0 6 -21 -4 -18 -2 -36 6 -46 16 -20 85 -37 73 -18 -5 9 -2 10
13 6 11 -4 23 -2 27 3 3 6 0 8 -8 5 -8 -3 -20 3 -28 12 -13 16 -12 17 11 11
21 -5 22 -4 10 6 -20 16 -23 36 -8 56 11 14 11 14 -3 4 -9 -7 -19 -10 -23 -6
-10 10 -46 11 -46 1 0 -4 -5 -8 -11 -8 -5 0 -8 4 -5 8 2 4 -4 8 -14 8 -10 0
-16 -5 -13 -10 4 -5 1 -6 -8 -1 -19 13 -128 12 -132 0 -2 -5 -2 -27 -1 -47 1
-21 -2 -38 -6 -38 -5 0 -7 22 -5 48 l3 49 -36 -2 c-20 -1 -38 -7 -40 -13 -2
-7 -11 -12 -20 -11 -11 0 -12 2 -4 6 6 2 12 9 12 14 0 6 -4 7 -10 4 -5 -3 -10
3 -10 15 0 13 -5 20 -12 17 -8 -2 -12 -20 -12 -48 2 -43 1 -43 -10 -16 -7 15
-15 25 -19 21 -3 -3 -9 5 -13 20 -6 26 -12 28 -46 19z m182 -63 c0 -5 -4 -10
-10 -10 -5 0 -10 5 -10 10 0 6 5 10 10 10 6 0 10 -4 10 -10z m264 2 c2 -4 -4
-8 -14 -8 -10 0 -16 4 -14 8 3 4 9 8 14 8 5 0 11 -4 14 -8z m-268 -49 c-10
-10 -19 5 -10 18 6 11 8 11 12 0 2 -7 1 -15 -2 -18z m266 5 c-9 -9 -15 -9 -24
0 -9 9 -7 12 12 12 19 0 21 -3 12 -12z"/>
<path d="M2625 5771 c-3 -5 -2 -12 3 -15 5 -3 9 1 9 9 0 17 -3 19 -12 6z"/>
<path d="M2180 5683 c0 -6 8 -17 18 -24 16 -13 16 -13 2 6 -8 11 -16 22 -17
24 -2 2 -3 0 -3 -6z"/>
<path d="M2546 5659 c4 -7 0 -9 -13 -5 -11 3 -27 -1 -39 -10 -18 -15 -18 -15
4 -4 14 7 28 7 40 1 14 -8 18 -6 19 10 1 10 -3 19 -8 19 -6 0 -7 -5 -3 -11z"/>
<path d="M2431 5644 c0 -11 3 -14 6 -6 3 7 2 16 -1 19 -3 4 -6 -2 -5 -13z"/>
<path d="M2168 5533 c7 -3 16 -2 19 1 4 3 -2 6 -13 5 -11 0 -14 -3 -6 -6z"/>
<path d="M2204 5524 c-18 -14 -18 -15 4 -4 12 6 22 13 22 15 0 8 -5 6 -26 -11z"/>
<path d="M2298 5533 c7 -3 16 -2 19 1 4 3 -2 6 -13 5 -11 0 -14 -3 -6 -6z"/>
<path d="M7320 5445 c0 -5 5 -17 10 -25 5 -8 10 -10 10 -5 0 6 -5 17 -10 25
-5 8 -10 11 -10 5z"/>
<path d="M2203 5383 c9 -2 25 -2 35 0 9 3 1 5 -18 5 -19 0 -27 -2 -17 -5z"/>
<path d="M7332 5360 c0 -19 2 -27 5 -17 2 9 2 25 0 35 -3 9 -5 1 -5 -18z"/>
<path d="M2395 5350 c-3 -6 1 -7 9 -4 18 7 21 14 7 14 -6 0 -13 -4 -16 -10z"/>
<path d="M2615 5349 c-4 -6 -4 -13 -1 -16 3 -4 6 -1 6 5 0 6 8 13 18 15 15 4
15 5 0 6 -9 0 -20 -4 -23 -10z"/>
<path d="M2876 5347 c3 -10 9 -15 12 -12 3 3 0 11 -7 18 -10 9 -11 8 -5 -6z"/>
<path d="M2930 5353 c8 -3 19 -11 23 -17 6 -7 7 -6 4 4 -2 8 -12 16 -23 17
-13 2 -15 1 -4 -4z"/>
<path d="M3036 5351 c-4 -5 3 -7 14 -4 23 6 26 13 6 13 -8 0 -17 -4 -20 -9z"/>
<path d="M3107 5353 c-3 -5 5 -8 18 -8 13 0 21 3 18 8 -2 4 -10 7 -18 7 -8 0
-16 -3 -18 -7z"/>
<path d="M2218 5343 c7 -3 16 -2 19 1 4 3 -2 6 -13 5 -11 0 -14 -3 -6 -6z"/>
<path d="M2461 5334 c0 -11 3 -14 6 -6 3 7 2 16 -1 19 -3 4 -6 -2 -5 -13z"/>
<path d="M2841 5334 c0 -11 3 -14 6 -6 3 7 2 16 -1 19 -3 4 -6 -2 -5 -13z"/>
<path d="M2351 5324 c0 -11 3 -14 6 -6 3 7 2 16 -1 19 -3 4 -6 -2 -5 -13z"/>
<path d="M2403 5323 c9 -2 23 -2 30 0 6 3 -1 5 -18 5 -16 0 -22 -2 -12 -5z"/>
<path d="M3113 5323 c9 -2 23 -2 30 0 6 3 -1 5 -18 5 -16 0 -22 -2 -12 -5z"/>
<path d="M2398 5298 c5 -5 16 -8 23 -6 8 3 3 7 -10 11 -17 4 -21 3 -13 -5z"/>
<path d="M2640 5300 c-9 -6 -10 -10 -3 -10 6 0 15 5 18 10 8 12 4 12 -15 0z"/>
<path d="M2917 5299 c7 -7 15 -10 18 -7 3 3 -2 9 -12 12 -14 6 -15 5 -6 -5z"/>
<path d="M2203 5293 c9 -2 25 -2 35 0 9 3 1 5 -18 5 -19 0 -27 -2 -17 -5z"/>
<path d="M2112 5270 c0 -14 2 -19 5 -12 2 6 2 18 0 25 -3 6 -5 1 -5 -13z"/>
<path d="M7343 5275 c-3 -9 -3 -18 -1 -21 3 -3 8 4 11 16 6 23 -1 27 -10 5z"/>
<path d="M2131 5224 c0 -11 3 -14 6 -6 3 7 2 16 -1 19 -3 4 -6 -2 -5 -13z"/>
<path d="M7321 5224 c0 -11 3 -14 6 -6 3 7 2 16 -1 19 -3 4 -6 -2 -5 -13z"/>
<path d="M7270 5170 c-9 -6 -10 -10 -3 -10 6 0 15 5 18 10 8 12 4 12 -15 0z"/>
<path d="M2166 5161 c3 -3 19 -6 35 -7 17 -1 28 1 25 4 -3 3 -19 6 -36 7 -17
1 -28 -1 -24 -4z"/>
<path d="M2500 5052 c11 -22 31 -22 29 1 0 8 -2 8 -6 -1 -4 -10 -9 -9 -20 5
-13 17 -13 16 -3 -5z"/>
<path d="M2155 5041 c-6 -11 13 -26 22 -17 4 3 0 6 -8 6 -11 0 -11 2 1 10 9 6
10 10 3 10 -6 0 -14 -4 -18 -9z"/>
<path d="M2533 5015 c4 -8 1 -17 -5 -21 -7 -4 -6 -9 3 -15 7 -4 10 -11 6 -16
-12 -11 -27 19 -21 40 3 11 0 17 -10 17 -17 0 -31 -16 -18 -22 10 -4 3 -108
-7 -108 -5 0 -7 15 -6 33 2 18 -3 40 -9 48 -11 14 -78 21 -70 7 9 -14 -14 -17
-25 -4 -12 15 -28 16 -48 3 -6 -4 -14 -3 -17 1 -3 5 -15 8 -28 6 -13 -1 -29
-3 -35 -3 -7 -1 -12 -6 -10 -13 1 -7 -13 -12 -35 -13 -31 -1 -38 2 -38 17 0
14 8 18 36 18 53 0 37 23 -16 24 l-45 1 0 -60 c1 -33 -4 -63 -10 -67 -5 -4 0
-8 13 -8 14 0 21 -4 16 -11 -4 -8 0 -7 15 1 12 6 31 8 41 5 29 -9 60 3 53 21
-4 10 0 13 13 8 18 -6 18 -6 0 8 -20 16 -17 48 5 48 8 0 8 -4 -1 -15 -7 -9 -8
-15 -2 -15 15 0 24 -32 12 -40 -8 -5 -7 -9 4 -13 19 -8 30 9 30 47 1 29 23 50
23 21 0 -8 -5 -15 -11 -15 -6 0 -4 -5 6 -10 10 -6 14 -18 11 -30 -4 -14 0 -20
11 -20 10 0 16 8 16 22 0 21 0 21 14 2 11 -14 11 -21 3 -26 -7 -5 -3 -8 11 -8
13 0 21 4 18 8 -2 4 4 8 14 9 11 1 22 -2 25 -8 4 -5 12 -9 18 -9 8 0 7 3 -2 9
-10 6 -2 9 23 9 20 0 33 -4 30 -9 -3 -5 2 -6 10 -3 24 9 23 164 0 164 -10 0
-14 -6 -11 -15z m-88 -65 c3 -5 2 -10 -4 -10 -5 0 -13 5 -16 10 -3 6 -2 10 4
10 5 0 13 -4 16 -10z m-45 -15 c-7 -9 -15 -13 -17 -11 -7 7 7 26 19 26 6 0 6
-6 -2 -15z m-163 -15 c2 -17 -4 -20 -38 -20 -45 0 -50 20 -8 31 39 11 45 10
46 -11z m202 -11 c-16 -10 -23 -4 -14 10 3 6 11 8 17 5 6 -4 5 -9 -3 -15z m98
-4 c0 -8 -4 -15 -9 -15 -10 0 -11 14 -1 23 9 10 10 9 10 -8z"/>
<path d="M2198 4973 c7 -3 16 -2 19 1 4 3 -2 6 -13 5 -11 0 -14 -3 -6 -6z"/>
<path d="M2168 4733 c7 -3 16 -2 19 1 4 3 -2 6 -13 5 -11 0 -14 -3 -6 -6z"/>
<path d="M2204 4724 c-18 -14 -18 -15 4 -4 12 6 22 13 22 15 0 8 -5 6 -26 -11z"/>
<path d="M2298 4733 c7 -3 16 -2 19 1 4 3 -2 6 -13 5 -11 0 -14 -3 -6 -6z"/>
<path d="M7320 4645 c0 -5 5 -17 10 -25 5 -8 10 -10 10 -5 0 6 -5 17 -10 25
-5 8 -10 11 -10 5z"/>
<path d="M2203 4583 c9 -2 25 -2 35 0 9 3 1 5 -18 5 -19 0 -27 -2 -17 -5z"/>
<path d="M7332 4560 c0 -19 2 -27 5 -17 2 9 2 25 0 35 -3 9 -5 1 -5 -18z"/>
<path d="M2395 4550 c-3 -6 1 -7 9 -4 18 7 21 14 7 14 -6 0 -13 -4 -16 -10z"/>
<path d="M2615 4549 c-4 -6 -4 -13 -1 -16 3 -4 6 -1 6 5 0 6 8 13 18 15 15 4
15 5 0 6 -9 0 -20 -4 -23 -10z"/>
<path d="M2860 4556 c0 -2 7 -7 16 -10 8 -3 12 -2 9 4 -6 10 -25 14 -25 6z"/>
<path d="M2936 4553 c6 -4 14 -15 17 -23 5 -11 6 -9 4 4 -1 11 -9 21 -17 23
-10 3 -11 2 -4 -4z"/>
<path d="M2977 4553 c6 -4 13 -22 16 -38 4 -27 5 -27 3 4 0 21 -7 36 -16 38
-10 3 -11 2 -3 -4z"/>
<path d="M3048 4553 c7 -3 16 -2 19 1 4 3 -2 6 -13 5 -11 0 -14 -3 -6 -6z"/>
<path d="M2218 4543 c7 -3 16 -2 19 1 4 3 -2 6 -13 5 -11 0 -14 -3 -6 -6z"/>
<path d="M2461 4534 c0 -11 3 -14 6 -6 3 7 2 16 -1 19 -3 4 -6 -2 -5 -13z"/>
<path d="M2351 4524 c0 -11 3 -14 6 -6 3 7 2 16 -1 19 -3 4 -6 -2 -5 -13z"/>
<path d="M2403 4523 c9 -2 23 -2 30 0 6 3 -1 5 -18 5 -16 0 -22 -2 -12 -5z"/>
<path d="M2853 4523 c9 -2 23 -2 30 0 6 3 -1 5 -18 5 -16 0 -22 -2 -12 -5z"/>
<path d="M2398 4498 c5 -5 16 -8 23 -6 8 3 3 7 -10 11 -17 4 -21 3 -13 -5z"/>
<path d="M2640 4500 c-9 -6 -10 -10 -3 -10 6 0 15 5 18 10 8 12 4 12 -15 0z"/>
<path d="M2870 4500 c-9 -6 -10 -10 -3 -10 6 0 15 5 18 10 8 12 4 12 -15 0z"/>
<path d="M2203 4493 c9 -2 25 -2 35 0 9 3 1 5 -18 5 -19 0 -27 -2 -17 -5z"/>
<path d="M2112 4470 c0 -14 2 -19 5 -12 2 6 2 18 0 25 -3 6 -5 1 -5 -13z"/>
<path d="M7343 4475 c-3 -9 -3 -18 -1 -21 3 -3 8 4 11 16 6 23 -1 27 -10 5z"/>
<path d="M2131 4424 c0 -11 3 -14 6 -6 3 7 2 16 -1 19 -3 4 -6 -2 -5 -13z"/>
<path d="M7321 4424 c0 -11 3 -14 6 -6 3 7 2 16 -1 19 -3 4 -6 -2 -5 -13z"/>
<path d="M7270 4370 c-9 -6 -10 -10 -3 -10 6 0 15 5 18 10 8 12 4 12 -15 0z"/>
<path d="M2166 4361 c3 -3 19 -6 35 -7 17 -1 28 1 25 4 -3 3 -19 6 -36 7 -17
1 -28 -1 -24 -4z"/>
<path d="M2158 4195 c-10 -13 -18 -27 -18 -32 0 -4 5 -1 11 7 9 12 9 11 4 -5
-28 -79 -34 -108 -24 -124 8 -13 9 -13 4 5 -6 25 27 64 55 64 19 0 25 -15 21
-49 -2 -8 6 -5 20 8 27 25 27 25 59 6 29 -16 22 -19 -13 -6 -22 9 -25 7 -23
-13 1 -18 7 -22 31 -21 35 0 58 12 50 26 -4 5 1 9 10 9 10 0 14 -5 10 -12 -4
-7 0 -5 8 5 8 10 21 17 29 16 40 -5 56 1 51 21 -3 11 -10 17 -17 14 -6 -3 -2
2 8 10 11 9 14 16 8 16 -7 0 -11 3 -11 8 5 31 -2 40 -28 36 -38 -7 -62 -31
-57 -57 4 -21 4 -21 -6 1 -6 15 -6 30 -1 40 8 15 3 17 -34 18 -26 0 -41 -4
-38 -10 4 -5 -1 -7 -9 -3 -11 4 -15 0 -13 -11 1 -9 -3 -20 -9 -24 -8 -5 -7 -8
2 -8 6 0 12 -7 12 -15 0 -8 -4 -15 -10 -15 -10 0 -14 20 -12 53 1 11 -2 15 -9
11 -7 -4 -6 2 2 17 11 22 11 23 -4 10 -15 -12 -17 -11 -17 8 0 28 -21 26 -42
-4z m35 -40 c4 -8 3 -16 -1 -19 -4 -3 -9 4 -9 15 -2 23 3 25 10 4z m115 -25
c-2 -27 -19 -34 -35 -15 -4 4 -2 5 5 1 7 -4 12 -1 12 9 0 9 -4 13 -10 10 -10
-6 -14 7 -5 17 16 15 35 2 33 -22z m95 13 c-7 -2 -19 -2 -25 0 -7 3 -2 5 12 5
14 0 19 -2 13 -5z m7 -33 c0 -5 -7 -10 -15 -10 -8 0 -15 5 -15 10 0 6 7 10 15
10 8 0 15 -4 15 -10z m-55 -20 c3 -5 1 -10 -4 -10 -6 0 -11 5 -11 10 0 6 2 10
4 10 3 0 8 -4 11 -10z"/>
<path d="M2460 4120 c-9 -6 -10 -10 -3 -10 6 0 15 5 18 10 8 12 4 12 -15 0z"/>
<path d="M2185 4090 c-3 -5 -1 -10 4 -10 6 0 11 5 11 10 0 6 -2 10 -4 10 -3 0
-8 -4 -11 -10z"/>
<path d="M2423 4055 c0 -7 6 -11 14 -8 7 3 13 6 13 8 0 2 -6 5 -13 8 -8 3 -14
-1 -14 -8z"/>
<path d="M2168 3933 c7 -3 16 -2 19 1 4 3 -2 6 -13 5 -11 0 -14 -3 -6 -6z"/>
<path d="M2204 3924 c-18 -14 -18 -15 4 -4 12 6 22 13 22 15 0 8 -5 6 -26 -11z"/>
<path d="M2298 3933 c7 -3 16 -2 19 1 4 3 -2 6 -13 5 -11 0 -14 -3 -6 -6z"/>
<path d="M7320 3845 c0 -5 5 -17 10 -25 5 -8 10 -10 10 -5 0 6 -5 17 -10 25
-5 8 -10 11 -10 5z"/>
<path d="M2203 3783 c9 -2 25 -2 35 0 9 3 1 5 -18 5 -19 0 -27 -2 -17 -5z"/>
<path d="M7332 3760 c0 -19 2 -27 5 -17 2 9 2 25 0 35 -3 9 -5 1 -5 -18z"/>
<path d="M2395 3750 c-3 -6 1 -7 9 -4 18 7 21 14 7 14 -6 0 -13 -4 -16 -10z"/>
<path d="M2615 3749 c-4 -6 -4 -13 -1 -16 3 -4 6 -1 6 5 0 6 8 13 18 15 15 4
15 5 0 6 -9 0 -20 -4 -23 -10z"/>
<path d="M2846 3751 c-4 -5 3 -7 14 -4 23 6 26 13 6 13 -8 0 -17 -4 -20 -9z"/>
<path d="M2995 3750 c-3 -6 1 -7 9 -4 18 7 21 14 7 14 -6 0 -13 -4 -16 -10z"/>
<path d="M2218 3743 c7 -3 16 -2 19 1 4 3 -2 6 -13 5 -11 0 -14 -3 -6 -6z"/>
<path d="M2461 3734 c0 -11 3 -14 6 -6 3 7 2 16 -1 19 -3 4 -6 -2 -5 -13z"/>
<path d="M2351 3724 c0 -11 3 -14 6 -6 3 7 2 16 -1 19 -3 4 -6 -2 -5 -13z"/>
<path d="M2403 3723 c9 -2 23 -2 30 0 6 3 -1 5 -18 5 -16 0 -22 -2 -12 -5z"/>
<path d="M2844 3719 c-3 -6 -1 -16 6 -22 10 -9 11 -9 5 2 -4 8 -2 17 6 22 9 6
10 9 2 9 -6 0 -15 -5 -19 -11z"/>
<path d="M2881 3704 c0 -11 3 -14 6 -6 3 7 2 16 -1 19 -3 4 -6 -2 -5 -13z"/>
<path d="M2398 3698 c5 -5 16 -8 23 -6 8 3 3 7 -10 11 -17 4 -21 3 -13 -5z"/>
<path d="M2640 3700 c-9 -6 -10 -10 -3 -10 6 0 15 5 18 10 8 12 4 12 -15 0z"/>
<path d="M2997 3698 c2 -5 10 -8 18 -8 8 0 16 3 18 8 3 4 -5 7 -18 7 -13 0
-21 -3 -18 -7z"/>
<path d="M2203 3693 c9 -2 25 -2 35 0 9 3 1 5 -18 5 -19 0 -27 -2 -17 -5z"/>
<path d="M2112 3670 c0 -14 2 -19 5 -12 2 6 2 18 0 25 -3 6 -5 1 -5 -13z"/>
<path d="M7343 3675 c-3 -9 -3 -18 -1 -21 3 -3 8 4 11 16 6 23 -1 27 -10 5z"/>
<path d="M2940 3670 c-9 -6 -10 -10 -3 -10 6 0 15 5 18 10 8 12 4 12 -15 0z"/>
<path d="M2131 3624 c0 -11 3 -14 6 -6 3 7 2 16 -1 19 -3 4 -6 -2 -5 -13z"/>
<path d="M7321 3624 c0 -11 3 -14 6 -6 3 7 2 16 -1 19 -3 4 -6 -2 -5 -13z"/>
<path d="M7270 3570 c-9 -6 -10 -10 -3 -10 6 0 15 5 18 10 8 12 4 12 -15 0z"/>
<path d="M2166 3561 c3 -3 19 -6 35 -7 17 -1 28 1 25 4 -3 3 -19 6 -36 7 -17
1 -28 -1 -24 -4z"/>
<path d="M2210 3456 c0 -8 4 -17 9 -20 5 -4 7 3 4 14 -6 23 -13 26 -13 6z"/>
<path d="M2298 3463 c7 -3 16 -2 19 1 4 3 -2 6 -13 5 -11 0 -14 -3 -6 -6z"/>
<path d="M4066 3455 c-11 -8 -15 -15 -9 -15 6 0 16 7 23 15 16 19 11 19 -14 0z"/>
<path d="M2088 3453 c7 -3 16 -2 19 1 4 3 -2 6 -13 5 -11 0 -14 -3 -6 -6z"/>
<path d="M4110 3450 c0 -5 5 -10 11 -10 5 0 7 5 4 10 -3 6 -8 10 -11 10 -2 0
-4 -4 -4 -10z"/>
<path d="M2185 3440 c-3 -5 -1 -10 4 -10 6 0 11 5 11 10 0 6 -2 10 -4 10 -3 0
-8 -4 -11 -10z"/>
<path d="M4146 3395 c2 -37 -1 -55 -9 -55 -7 0 -6 -4 3 -10 11 -7 11 -10 2
-10 -7 0 -10 -4 -7 -10 3 -5 1 -10 -5 -10 -5 0 -9 14 -8 30 1 17 6 30 10 30 3
0 6 9 5 19 0 11 -4 18 -8 15 -4 -2 -11 1 -15 7 -5 9 -11 7 -20 -5 -9 -13 -14
-14 -19 -5 -5 7 -1 16 9 21 9 5 16 14 16 21 0 8 -3 7 -9 -2 -5 -8 -19 -12 -35
-9 -15 3 -31 0 -37 -8 -9 -11 -8 -14 2 -14 10 -1 9 -4 -3 -14 -10 -7 -14 -17
-10 -22 4 -5 -3 -1 -15 9 -21 18 -22 18 -33 -2 -12 -24 -35 -29 -26 -6 3 8 2
15 -2 16 -4 0 -17 2 -30 5 -20 4 -22 2 -9 -10 8 -8 20 -35 27 -60 15 -54 26
-65 35 -36 3 11 11 20 17 20 5 0 8 -6 5 -14 -3 -8 1 -13 12 -12 22 1 55 33 40
38 -7 2 -6 13 2 33 10 25 13 27 17 11 2 -10 -2 -22 -10 -27 -10 -7 -10 -9 0
-9 9 0 11 -7 7 -19 -7 -24 9 -35 33 -22 13 7 22 7 30 -1 8 -8 16 -7 28 3 16
12 17 12 11 -4 -5 -15 -4 -16 10 -8 12 6 17 22 18 48 0 27 4 38 15 38 8 0 16
-8 18 -17 3 -13 -1 -16 -15 -12 -15 5 -15 4 -3 -5 8 -5 15 -18 15 -28 0 -10 7
-18 15 -18 10 0 14 8 12 21 -2 15 4 23 18 27 11 3 18 1 14 -4 -3 -5 1 -9 8 -9
15 0 48 50 48 73 0 8 -10 21 -22 29 -27 17 -66 32 -55 22 4 -4 1 -14 -6 -22
-9 -13 -9 -14 1 -8 15 9 16 -6 0 -22 -9 -9 -8 -12 8 -12 11 0 25 5 31 11 8 8
13 8 17 0 4 -6 2 -11 -3 -11 -6 0 -11 -7 -11 -15 0 -8 -3 -15 -7 -16 -5 0 -15
-2 -24 -4 -9 -1 -16 2 -17 9 -3 32 -15 92 -18 95 -2 2 -4 -9 -4 -25 0 -23 -5
-30 -20 -31 -22 -2 -26 7 -9 24 8 8 5 13 -10 18 -12 3 -19 11 -16 16 4 5 2 9
-3 9 -5 0 -8 -25 -6 -55z m-90 -13 c-4 -3 -11 0 -16 8 -15 24 -11 33 6 15 9
-9 13 -19 10 -23z m221 32 c-3 -3 -12 -4 -19 -1 -8 3 -5 6 6 6 11 1 17 -2 13
-5z m-187 -109 c0 -8 -4 -15 -10 -15 -5 0 -10 7 -10 15 0 8 5 15 10 15 6 0 10
-7 10 -15z"/>
<path d="M4278 3443 c7 -3 16 -2 19 1 4 3 -2 6 -13 5 -11 0 -14 -3 -6 -6z"/>
<path d="M2497 3429 c7 -7 15 -10 18 -7 3 3 -2 9 -12 12 -14 6 -15 5 -6 -5z"/>
<path d="M2296 3422 c-4 -4 -15 -7 -24 -7 -17 0 -18 -4 -21 -51 -1 -30 -21
-22 -21 9 0 12 -5 29 -10 37 -7 12 -12 12 -22 2 -13 -13 -15 -17 -17 -54 -1
-31 -19 -11 -23 27 -2 19 -9 30 -18 30 -8 0 -13 -7 -12 -15 2 -8 5 -31 7 -51
3 -40 21 -79 36 -79 5 0 12 14 16 30 3 17 12 30 20 30 10 0 13 -6 9 -16 -10
-26 15 -41 62 -36 36 4 42 7 43 28 3 44 4 47 19 51 12 4 12 3 1 -5 -11 -8 -11
-10 0 -15 10 -4 10 -6 2 -6 -7 -1 -13 -11 -12 -23 0 -22 1 -22 9 -3 8 18 9 17
9 -7 1 -32 20 -37 28 -8 5 19 6 19 18 3 7 -10 11 -21 9 -25 -3 -5 2 -8 11 -8
9 0 14 4 11 8 -7 11 26 12 40 1 7 -6 10 5 9 34 -3 70 -12 86 -43 81 -33 -6
-53 -24 -34 -31 6 -3 10 -9 6 -14 -6 -11 -25 -12 -22 -1 4 19 -17 42 -38 42
-17 0 -24 6 -24 19 0 22 -13 34 -24 23z m-9 -77 c0 -42 -3 -55 -15 -55 -10 0
-12 7 -8 26 4 15 10 39 13 55 3 16 7 29 8 29 1 0 2 -25 2 -55z m158 5 c3 -6
-1 -7 -9 -4 -18 7 -21 14 -7 14 6 0 13 -4 16 -10z m-6 -41 c-16 -10 -23 -4
-14 10 3 6 11 8 17 5 6 -4 5 -9 -3 -15z"/>
<path d="M2650 3404 c-6 -15 -13 -24 -17 -20 -9 8 -43 -24 -43 -41 0 -8 -5
-11 -12 -7 -7 4 -2 -7 11 -24 12 -18 29 -33 37 -33 8 -1 20 -2 27 -3 21 -4 35
14 31 37 -3 15 -1 14 7 -5 9 -23 17 -28 44 -28 19 0 37 5 40 10 4 6 11 8 16 5
5 -4 6 2 2 11 -5 14 -3 16 11 11 11 -4 6 6 -14 31 -29 37 -51 45 -77 29 -7 -4
-14 0 -17 10 -3 10 -4 6 -2 -10 2 -15 -1 -30 -5 -33 -5 -3 -9 13 -9 35 0 48
-16 62 -30 25z m-2 -72 c0 -19 -5 -29 -14 -29 -17 0 -19 17 -1 18 10 0 10 2 0
6 -17 6 -16 33 0 33 8 0 14 -12 15 -28z m107 -2 c0 -13 -7 -24 -16 -25 -15 -3
-21 17 -13 43 7 22 29 8 29 -18z"/>
<path d="M2735 3320 c3 -5 8 -10 11 -10 2 0 4 5 4 10 0 6 -5 10 -11 10 -5 0
-7 -4 -4 -10z"/>
<path d="M3228 3408 c-2 -14 -11 -24 -23 -26 -11 -2 -29 -18 -41 -36 -19 -30
-20 -35 -7 -61 9 -16 18 -23 22 -17 9 14 150 22 147 8 -2 -6 -1 -8 1 -3 3 4
11 7 18 7 15 0 28 27 19 41 -3 5 0 9 5 9 6 0 11 -13 11 -30 0 -16 5 -30 10
-30 11 0 12 4 14 52 1 25 6 33 21 35 11 2 14 0 7 -3 -6 -3 -9 -11 -5 -17 9
-13 10 -19 12 -46 1 -14 6 -18 23 -13 13 3 19 1 15 -5 -5 -7 1 -7 17 0 16 8
21 16 15 21 -5 6 -9 14 -9 20 0 5 9 -2 21 -15 11 -13 29 -25 40 -25 25 -2 24
4 -6 28 -29 22 -32 40 -10 58 8 7 15 17 15 22 0 11 -42 0 -51 -14 -3 -5 -6 5
-7 22 -1 36 -6 45 -21 35 -6 -3 -8 -17 -5 -30 8 -33 -4 -51 -20 -29 -13 17
-75 26 -77 12 -1 -5 -2 -12 -3 -17 0 -5 -5 -13 -10 -18 -5 -4 -6 -3 -3 3 4 6
0 20 -8 30 -10 13 -14 15 -15 5 0 -9 -4 -10 -12 -4 -26 19 -53 9 -58 -22 -3
-25 -5 -22 -10 19 -5 52 -26 74 -32 34z m-1 -78 c0 -16 -4 -30 -9 -30 -4 0 -8
7 -8 15 0 8 -6 15 -12 16 -10 0 -10 2 0 6 6 2 10 9 6 14 -3 5 1 9 9 9 9 0 14
-11 14 -30z m106 23 c4 -3 2 -12 -4 -20 -9 -9 -8 -13 0 -13 6 0 11 -4 11 -10
0 -18 -37 -11 -37 8 -2 36 13 53 30 35z m145 -38 c0 -14 -4 -25 -9 -25 -5 0
-9 11 -9 25 0 14 4 25 9 25 5 0 9 -11 9 -25z m-304 -11 c10 -25 -1 -29 -14 -5
-6 12 -7 21 -1 21 5 0 12 -7 15 -16z"/>
<path d="M2484 3406 c4 -11 1 -23 -6 -28 -10 -6 -10 -8 2 -8 10 0 16 -11 17
-30 1 -17 -1 -29 -6 -26 -4 3 -8 -1 -8 -9 0 -8 4 -12 9 -9 4 3 8 0 8 -5 0 -6
11 -11 24 -11 13 0 29 -7 36 -15 10 -12 10 -15 0 -15 -8 0 -11 -2 -8 -5 3 -3
12 -3 21 1 13 4 9 11 -16 36 -18 16 -25 27 -17 23 8 -4 6 1 -4 9 -11 9 -16 19
-12 23 4 5 19 -5 32 -20 13 -15 24 -25 24 -21 0 4 -10 18 -22 31 -18 20 -19
23 -5 23 19 0 22 11 8 26 -5 5 -11 18 -14 29 -5 16 -6 15 -5 -5 1 -42 -2 -50
-14 -50 -9 0 -9 3 0 12 14 14 -4 52 -20 42 -5 -4 -15 0 -20 7 -7 11 -8 9 -4
-5z"/>
<path d="M3330 3410 c0 -5 7 -10 15 -10 8 0 15 5 15 10 0 6 -7 10 -15 10 -8 0
-15 -4 -15 -10z"/>
<path d="M2101 3405 c1 -19 18 -51 18 -35 0 8 -4 22 -9 30 -5 8 -9 11 -9 5z"/>
<path d="M3617 3393 c-13 -15 -14 -22 -5 -31 16 -16 -1 -15 -22 1 -9 6 -7 3 5
-9 31 -31 31 -53 -1 -24 -15 14 -24 20 -20 13 3 -6 2 -14 -4 -18 -5 -3 -10
-12 -10 -18 0 -8 3 -8 9 1 12 19 14 19 33 2 11 -11 12 -17 4 -22 -6 -5 0 -8
14 -8 20 0 22 -2 10 -10 -8 -5 -10 -10 -5 -10 6 1 18 7 28 14 17 13 17 15 2
23 -16 9 -17 46 -3 69 4 6 2 19 -5 28 -12 16 -14 16 -30 -1z"/>
<path d="M3663 3395 c2 -11 10 -19 18 -17 11 2 11 0 -1 -10 -9 -7 -15 -19 -14
-25 1 -7 2 -22 3 -33 0 -11 11 -25 24 -30 12 -5 16 -10 10 -11 -7 -1 -17 -3
-23 -4 -5 -1 -16 -3 -22 -4 -9 -1 -9 -4 1 -10 10 -7 24 -3 42 10 15 10 32 19
37 19 6 0 12 6 15 13 4 10 7 10 18 0 7 -7 24 -13 37 -13 13 0 21 -4 18 -9 -8
-12 4 -41 16 -41 6 0 4 7 -3 16 -11 13 -10 17 5 26 12 7 16 17 12 34 -5 19 -3
22 11 17 17 -5 17 -5 1 8 -9 8 -18 23 -20 34 -3 16 -10 19 -33 17 -17 -2 -34
-7 -39 -12 -10 -10 -38 -2 -32 9 3 4 -12 7 -32 6 -24 0 -40 5 -44 15 -6 11 -7
10 -5 -5z m67 -43 c0 -5 -7 -9 -15 -9 -8 0 -15 4 -15 9 0 4 7 8 15 8 8 0 15
-4 15 -8z m55 -17 c-48 -29 -61 -32 -37 -7 9 11 19 18 22 16 3 -1 12 1 20 7 8
5 20 9 25 9 6 0 -8 -11 -30 -25z m32 -20 c0 -17 -13 -20 -21 -6 -4 5 0 12 6
14 7 3 13 6 14 6 0 1 1 -6 1 -14z m-102 -5 c3 -5 1 -10 -4 -10 -6 0 -11 5 -11
10 0 6 2 10 4 10 3 0 8 -4 11 -10z"/>
<path d="M2780 3381 c0 -6 4 -12 8 -15 5 -3 9 1 9 9 0 8 -4 15 -9 15 -4 0 -8
-4 -8 -9z"/>
<path d="M2810 3378 c0 -5 7 -8 15 -8 8 0 15 -4 15 -9 0 -15 -18 -23 -23 -11
-3 6 -4 5 -3 -2 2 -7 11 -11 21 -10 16 3 17 1 6 -11 -9 -12 -9 -17 0 -23 8 -4
9 -3 5 4 -4 7 -2 12 3 12 16 0 14 -11 -6 -32 -18 -20 -4 -25 16 -5 10 10 11 9
6 -5 -4 -9 -13 -19 -21 -22 -20 -8 -17 -25 4 -22 9 1 26 21 37 44 11 23 24 41
29 42 5 0 6 -3 3 -7 -11 -10 26 -32 55 -33 17 0 33 8 42 22 15 21 16 21 18 3
0 -11 1 -26 1 -32 -1 -7 3 -11 7 -8 5 3 10 2 13 -2 2 -5 2 -2 0 5 -2 9 3 11
16 7 21 -6 55 21 46 36 -4 5 -2 9 3 9 15 0 23 30 13 48 -5 9 -21 17 -35 18
-26 1 -34 -10 -16 -21 13 -8 13 -52 0 -60 -7 -4 -9 2 -5 17 9 42 -18 62 -84
63 -33 0 -57 -3 -55 -7 3 -4 0 -8 -5 -8 -6 0 -11 4 -11 9 0 6 -9 9 -19 8 -11
0 -17 -6 -14 -14 3 -7 -2 -13 -11 -13 -8 0 -13 6 -10 13 3 9 -5 13 -26 12 -16
0 -30 -3 -30 -7z m214 -14 c10 -25 -1 -29 -14 -5 -6 12 -7 21 -1 21 5 0 12 -7
15 -16z m97 -27 c-8 -8 -11 -3 -11 19 1 25 2 27 11 11 8 -14 8 -22 0 -30z
m-133 -1 c2 -10 -2 -23 -9 -30 -9 -8 -11 -7 -6 6 4 12 2 15 -8 12 -12 -5 -13
2 -6 34 3 11 27 -8 29 -22z m82 7 c0 -5 -5 -15 -10 -23 -8 -12 -10 -11 -10 8
0 12 5 22 10 22 6 0 10 -3 10 -7z"/>
<path d="M3870 3360 c0 -5 5 -10 11 -10 5 0 7 5 4 10 -3 6 -8 10 -11 10 -2 0
-4 -4 -4 -10z"/>
<path d="M3543 3335 c0 -8 4 -12 9 -9 5 3 6 10 3 15 -9 13 -12 11 -12 -6z"/>
<path d="M4264 3288 c6 -10 13 -18 16 -18 3 0 10 8 16 18 10 15 7 17 -16 17
-23 0 -26 -2 -16 -17z"/>
<path d="M3745 3273 c-14 -11 -15 -14 -4 -10 9 3 23 0 30 -6 11 -10 11 -9 1 4
-6 9 -9 19 -5 22 12 13 -2 6 -22 -10z"/>
<path d="M2192 3260 c0 -14 2 -19 5 -12 2 6 2 18 0 25 -3 6 -5 1 -5 -13z"/>
<path d="M2680 3269 c0 -6 -7 -8 -17 -4 -15 5 -16 4 -5 -6 10 -11 15 -10 29 4
11 11 13 17 5 17 -7 0 -12 -5 -12 -11z"/>
<path d="M2376 3254 c-4 -9 -4 -19 -1 -22 2 -3 7 3 11 12 4 9 4 19 1 22 -2 3
-7 -3 -11 -12z"/>
<path d="M2503 3263 c9 -2 23 -2 30 0 6 3 -1 5 -18 5 -16 0 -22 -2 -12 -5z"/>
<path d="M2610 3266 c0 -2 7 -7 16 -10 8 -3 12 -2 9 4 -6 10 -25 14 -25 6z"/>
<path d="M2704 3258 c-3 -4 3 -5 13 -1 16 6 17 5 3 -12 -15 -18 -14 -18 15 0
17 11 31 20 33 20 1 1 -12 2 -28 2 -17 0 -33 -4 -36 -9z"/>
<path d="M2955 3260 c-3 -5 -2 -10 4 -10 5 0 13 5 16 10 3 6 2 10 -4 10 -5 0
-13 -4 -16 -10z"/>
<path d="M3090 3260 c-9 -6 -10 -10 -3 -10 6 0 15 5 18 10 8 12 4 12 -15 0z"/>
<path d="M3210 3259 c0 -5 5 -7 10 -4 6 3 10 8 10 11 0 2 -4 4 -10 4 -5 0 -10
-5 -10 -11z"/>
<path d="M4080 3260 c-9 -6 -10 -10 -3 -10 6 0 15 5 18 10 8 12 4 12 -15 0z"/>
<path d="M2240 3251 c0 -6 4 -13 10 -16 6 -3 7 1 4 9 -7 18 -14 21 -14 7z"/>
<path d="M2915 3250 c-3 -5 -1 -10 4 -10 6 0 11 5 11 10 0 6 -2 10 -4 10 -3 0
-8 -4 -11 -10z"/>
<path d="M3005 3250 c3 -5 8 -10 11 -10 2 0 4 5 4 10 0 6 -5 10 -11 10 -5 0
-7 -4 -4 -10z"/>
<path d="M3552 3244 c-7 -8 -8 -14 -3 -14 10 0 25 19 20 25 -2 1 -10 -3 -17
-11z"/>
<path d="M4106 3252 c-2 -4 4 -8 14 -8 10 0 16 4 14 8 -3 4 -9 8 -14 8 -5 0
-11 -4 -14 -8z"/>
<path d="M3615 3240 c-3 -6 1 -7 9 -4 18 7 21 14 7 14 -6 0 -13 -4 -16 -10z"/>
<path d="M2168 3133 c7 -3 16 -2 19 1 4 3 -2 6 -13 5 -11 0 -14 -3 -6 -6z"/>
<path d="M2204 3124 c-18 -14 -18 -15 4 -4 12 6 22 13 22 15 0 8 -5 6 -26 -11z"/>
<path d="M2298 3133 c7 -3 16 -2 19 1 4 3 -2 6 -13 5 -11 0 -14 -3 -6 -6z"/>
<path d="M7048 3133 c7 -3 16 -2 19 1 4 3 -2 6 -13 5 -11 0 -14 -3 -6 -6z"/>
<path d="M7178 3133 c7 -3 16 -2 19 1 4 3 -2 6 -13 5 -11 0 -14 -3 -6 -6z"/>
<path d="M2111 3024 c0 -11 3 -14 6 -6 3 7 2 16 -1 19 -3 4 -6 -2 -5 -13z"/>
<path d="M2222 3018 c-17 -17 -15 -63 3 -78 16 -13 55 -5 55 12 0 6 -6 6 -15
-2 -23 -19 -45 -4 -45 30 0 36 22 49 48 29 15 -13 16 -12 3 4 -16 20 -32 22
-49 5z"/>
<path d="M2302 2980 c0 -41 2 -47 7 -25 3 17 13 30 21 30 8 0 18 -13 22 -30 6
-29 6 -29 5 5 -2 28 -6 35 -22 35 -11 0 -23 9 -27 20 -3 11 -6 -4 -6 -35z"/>
<path d="M3249 3009 c-2 -27 3 -64 9 -71 4 -4 6 11 5 33 -1 39 -12 67 -14 38z"/>
<path d="M7261 3004 c0 -11 3 -14 6 -6 3 7 2 16 -1 19 -3 4 -6 -2 -5 -13z"/>
<path d="M2381 2982 c-7 -14 -7 -24 3 -37 19 -27 48 -12 44 22 -4 33 -32 42
-47 15z m36 -8 c8 -22 -15 -44 -26 -25 -10 16 -4 41 10 41 5 0 12 -7 16 -16z"/>
<path d="M2455 2990 c-8 -14 3 -30 21 -30 8 0 14 -5 14 -11 0 -7 -9 -9 -21 -6
-16 4 -19 3 -11 -5 12 -12 42 -4 42 13 0 6 -9 13 -20 16 -25 7 -26 20 -2 26
15 4 15 5 0 6 -9 0 -20 -3 -23 -9z"/>
<path d="M2522 2988 c-20 -20 -14 -28 19 -28 24 0 30 4 27 17 -4 22 -29 28
-46 11z m38 -8 c0 -5 -9 -10 -21 -10 -11 0 -17 5 -14 10 3 6 13 10 21 10 8 0
14 -4 14 -10z"/>
<path d="M2634 2986 c-10 -26 0 -51 21 -51 16 0 20 7 20 30 0 33 -30 49 -41
21z m36 -21 c0 -16 -6 -25 -15 -25 -9 0 -15 9 -15 25 0 16 6 25 15 25 9 0 15
-9 15 -25z"/>
<path d="M2701 2963 c1 -36 2 -37 8 -8 3 17 13 30 21 30 8 0 18 -13 22 -30 6
-29 6 -29 5 5 -2 30 -6 35 -29 38 -26 3 -28 1 -27 -35z"/>
<path d="M2786 2991 c-3 -5 3 -7 14 -4 11 3 20 1 20 -5 0 -6 -12 -13 -27 -15
-26 -4 -25 -4 5 -6 27 -1 33 2 30 16 -4 20 -33 29 -42 14z"/>
<path d="M2892 2970 c5 -17 14 -33 19 -36 12 -7 11 -2 -7 34 -20 40 -26 41
-12 2z"/>
<path d="M2926 2985 c-9 -26 -7 -32 5 -12 6 10 9 21 6 23 -2 3 -7 -2 -11 -11z"/>
<path d="M2960 2990 c0 -5 7 -7 15 -4 8 4 15 2 15 -4 0 -5 -9 -12 -21 -15 -28
-7 -19 -31 12 -35 23 -3 25 0 21 33 -3 26 -9 35 -23 35 -10 0 -19 -4 -19 -10z
m30 -40 c0 -5 -4 -10 -9 -10 -6 0 -13 5 -16 10 -3 6 1 10 9 10 9 0 16 -4 16
-10z"/>
<path d="M3031 2963 c2 -35 2 -35 6 -8 3 16 10 33 16 37 8 5 6 8 -5 8 -14 0
-18 -8 -17 -37z"/>
<path d="M3073 2965 c0 -22 2 -30 4 -17 2 12 2 30 0 40 -3 9 -5 -1 -4 -23z"/>
<path d="M3110 2990 c0 -5 7 -7 15 -4 8 4 15 2 15 -4 0 -5 -9 -12 -21 -15 -28
-7 -19 -32 12 -33 22 -1 24 2 21 33 -3 24 -9 33 -23 33 -10 0 -19 -4 -19 -10z
m30 -40 c0 -5 -4 -10 -9 -10 -6 0 -13 5 -16 10 -3 6 1 10 9 10 9 0 16 -4 16
-10z"/>
<path d="M3178 2970 c-3 -17 -1 -33 4 -36 4 -3 8 9 8 25 0 43 27 41 33 -1 l5
-33 -2 35 c-1 28 -6 36 -22 38 -17 2 -22 -3 -26 -28z"/>
<path d="M7070 2992 c0 -5 9 -17 20 -27 20 -18 21 -18 42 3 24 24 18 43 -7 22
-12 -10 -19 -10 -27 -2 -14 14 -28 16 -28 4z"/>
<path d="M2111 2954 c0 -11 3 -14 6 -6 3 7 2 16 -1 19 -3 4 -6 -2 -5 -13z"/>
<path d="M7242 2950 c0 -14 2 -19 5 -12 2 6 2 18 0 25 -3 6 -5 1 -5 -13z"/>
<path d="M2527 2938 c2 -5 10 -8 18 -8 8 0 16 3 18 8 3 4 -5 7 -18 7 -13 0
-21 -3 -18 -7z"/>
<path d="M2787 2938 c2 -5 10 -8 18 -8 8 0 16 3 18 8 3 4 -5 7 -18 7 -13 0
-21 -3 -18 -7z"/>
<path d="M2131 2904 c0 -11 3 -14 6 -6 3 7 2 16 -1 19 -3 4 -6 -2 -5 -13z"/>
<path d="M7221 2904 c0 -11 3 -14 6 -6 3 7 2 16 -1 19 -3 4 -6 -2 -5 -13z"/>
<path d="M7190 2869 c0 -5 5 -7 10 -4 6 3 10 8 10 11 0 2 -4 4 -10 4 -5 0 -10
-5 -10 -11z"/>
<path d="M2170 2836 c7 -7 13 -7 20 0 6 6 3 10 -10 10 -13 0 -16 -4 -10 -10z"/>
<path d="M7053 2823 c9 -2 23 -2 30 0 6 3 -1 5 -18 5 -16 0 -22 -2 -12 -5z"/>
<path d="M2210 2656 c0 -8 4 -17 9 -20 5 -4 7 3 4 14 -6 23 -13 26 -13 6z"/>
<path d="M2298 2663 c7 -3 16 -2 19 1 4 3 -2 6 -13 5 -11 0 -14 -3 -6 -6z"/>
<path d="M3011 2654 c0 -11 3 -14 6 -6 3 7 2 16 -1 19 -3 4 -6 -2 -5 -13z"/>
<path d="M3055 2659 c-4 -6 -5 -12 -2 -15 2 -3 7 2 10 11 7 17 1 20 -8 4z"/>
<path d="M3086 2657 c3 -10 9 -15 12 -12 3 3 0 11 -7 18 -10 9 -11 8 -5 -6z"/>
<path d="M3621 2654 c0 -11 3 -14 6 -6 3 7 2 16 -1 19 -3 4 -6 -2 -5 -13z"/>
<path d="M3707 2653 c3 -7 6 -13 8 -13 2 0 5 6 8 13 3 8 -1 14 -8 14 -7 0 -11
-6 -8 -14z"/>
<path d="M3846 2653 c-6 -14 -5 -15 5 -6 7 7 10 15 7 18 -3 3 -9 -2 -12 -12z"/>
<path d="M2088 2653 c7 -3 16 -2 19 1 4 3 -2 6 -13 5 -11 0 -14 -3 -6 -6z"/>
<path d="M2185 2640 c-3 -5 -1 -10 4 -10 6 0 11 5 11 10 0 6 -2 10 -4 10 -3 0
-8 -4 -11 -10z"/>
<path d="M3730 2640 c0 -5 5 -10 11 -10 5 0 7 5 4 10 -3 6 -8 10 -11 10 -2 0
-4 -4 -4 -10z"/>
<path d="M3856 2627 c-12 -9 -18 -27 -18 -53 0 -21 -3 -32 -6 -24 -9 25 -26
36 -55 33 -24 -2 -27 1 -23 20 3 12 3 16 0 9 -5 -11 -10 -10 -24 3 -15 14 -18
14 -30 0 -9 -11 -9 -15 -1 -15 7 0 9 -4 6 -10 -6 -10 -33 -9 -51 3 -16 9 -21
-9 -18 -60 2 -25 -2 -43 -7 -43 -6 0 -10 24 -9 58 3 74 2 82 -10 82 -5 0 -10
-12 -10 -26 0 -21 -4 -25 -20 -21 -11 3 -23 1 -26 -4 -3 -5 -10 -6 -16 -3 -7
4 -8 2 -4 -5 4 -6 2 -19 -6 -28 -11 -14 -11 -16 1 -8 11 6 13 4 8 -8 -16 -40
-19 -52 -9 -38 8 11 12 10 21 -8 7 -11 16 -21 22 -21 6 0 8 4 5 8 -3 5 11 9
32 10 29 0 33 -1 17 -8 -11 -5 -15 -9 -9 -9 7 -1 27 6 45 14 19 8 26 14 17 15
-13 0 -16 7 -13 32 7 54 29 54 35 0 3 -26 1 -50 -4 -53 -4 -4 -4 -9 1 -12 6
-4 16 5 23 19 10 17 16 21 21 12 4 -7 3 -15 -2 -19 -6 -3 -3 -12 7 -20 10 -8
15 -9 11 -3 -9 15 17 66 29 57 5 -4 3 -1 -3 7 -17 19 -16 50 1 50 9 0 14 -12
14 -34 0 -59 31 -76 33 -18 1 27 1 27 8 -3 4 -16 7 -40 6 -51 -2 -22 16 -27
32 -9 4 4 3 5 -3 2 -7 -4 -15 0 -18 8 -3 9 1 18 8 21 8 3 12 15 10 27 -5 22
-4 22 7 0 7 -13 16 -23 21 -23 4 0 8 -5 8 -11 0 -5 -4 -8 -8 -5 -4 2 -8 -4 -8
-14 0 -19 1 -19 18 0 18 19 24 50 10 50 -4 0 -13 10 -21 21 -12 20 -11 21 4
15 16 -6 16 -4 4 11 -12 15 -12 16 3 10 12 -4 15 -2 12 8 -3 7 -14 15 -24 18
-12 3 -17 0 -14 -8 3 -7 1 -16 -5 -19 -7 -5 -9 8 -5 38 6 51 5 51 -20 33z
m-116 -37 c0 -5 -4 -10 -10 -10 -5 0 -10 5 -10 10 0 6 5 10 10 10 6 0 10 -4
10 -10z m-145 -62 c1 -18 -3 -25 -14 -24 -18 3 -25 21 -17 42 9 23 30 11 31
-18z"/>
<path d="M2296 2622 c-4 -4 -15 -7 -24 -7 -17 0 -18 -4 -21 -51 -1 -30 -21
-22 -21 9 0 12 -5 29 -10 37 -7 12 -12 12 -22 2 -13 -13 -15 -17 -17 -54 -1
-31 -19 -11 -23 27 -2 19 -9 30 -18 30 -8 0 -13 -7 -12 -15 2 -8 5 -31 7 -51
3 -40 21 -79 36 -79 5 0 12 14 16 30 3 17 12 30 20 30 10 0 13 -6 9 -16 -10
-26 15 -41 62 -36 30 3 42 9 43 21 1 9 2 25 3 35 0 11 8 21 16 23 13 4 13 3 0
-6 -10 -7 -11 -11 -2 -11 6 0 11 -3 11 -7 -1 -5 -1 -20 0 -35 1 -33 18 -37 30
-6 6 18 9 19 14 5 4 -10 14 -17 24 -17 15 0 15 -2 -3 -16 -16 -13 -14 -13 9 1
16 9 35 14 43 11 8 -3 12 -2 9 3 -3 5 -1 12 5 16 5 3 10 -1 10 -10 0 -9 6 -15
12 -13 8 3 12 20 11 42 -1 24 4 39 13 43 23 9 16 29 -10 28 -13 0 -28 -3 -32
-7 -10 -11 -26 -10 -20 0 7 11 -36 9 -55 -3 -9 -6 -19 -19 -22 -30 -4 -18 -5
-18 -6 3 -1 22 -37 45 -53 35 -5 -2 -8 5 -8 16 0 22 -13 35 -24 23z m-9 -77
c0 -41 -4 -55 -14 -55 -9 0 -12 7 -9 18 3 9 8 34 12 55 3 20 7 37 9 37 1 0 2
-25 2 -55z m163 7 c0 -5 -7 -9 -15 -9 -8 0 -15 4 -15 9 0 4 7 8 15 8 8 0 15
-4 15 -8z m38 -15 c-1 -15 -9 -24 -23 -24 -18 -2 -18 -1 -2 8 9 6 17 17 17 24
0 8 2 15 5 15 3 0 4 -10 3 -23z m-48 -27 c0 -5 -4 -10 -10 -10 -5 0 -10 5 -10
10 0 6 5 10 10 10 6 0 10 -4 10 -10z"/>
<path d="M3017 2622 c-4 -5 -2 -96 2 -145 2 -22 25 3 24 26 -1 15 -1 50 -2 77
-1 45 -12 63 -24 42z"/>
<path d="M3070 2621 c-17 -5 -21 -9 -12 -15 6 -4 12 -12 12 -17 0 -6 -4 -8 -9
-5 -8 5 -6 -47 4 -96 1 -9 -2 -19 -9 -22 -8 -3 -8 -5 1 -5 6 -1 19 9 27 21 15
21 22 14 17 -14 0 -5 4 -7 10 -5 6 1 14 -4 17 -12 3 -9 0 -11 -8 -6 -9 6 -11
4 -5 -4 5 -9 10 -10 18 -2 7 7 6 15 -3 27 -13 14 -11 16 20 12 20 -2 35 2 37
10 3 6 0 12 -7 12 -6 0 -9 4 -5 9 3 6 -2 14 -10 18 -14 8 -14 11 2 29 10 10
25 20 33 22 8 1 4 -7 -10 -18 -14 -11 -20 -20 -14 -20 6 0 14 -13 18 -30 3
-20 12 -30 23 -30 15 0 16 -2 3 -10 -9 -6 -17 -5 -21 1 -4 6 -9 4 -13 -7 -3
-9 -4 -19 -1 -22 3 -3 5 1 5 8 0 7 3 10 7 7 3 -4 17 0 31 9 13 8 30 13 37 10
8 -3 17 0 21 6 5 7 2 8 -6 3 -9 -5 -10 -2 -5 14 5 17 3 20 -12 15 -17 -6 -17
-6 0 7 24 19 32 60 10 52 -9 -4 -14 -2 -10 3 3 6 -13 9 -41 8 -78 -3 -83 -4
-77 -13 3 -5 1 -12 -4 -15 -5 -4 -8 6 -6 21 5 52 -7 60 -65 44z m29 -43 c0
-31 -1 -31 -10 -10 -5 13 -7 28 -3 33 10 16 14 9 13 -23z m151 -26 c0 -5 -7
-9 -15 -9 -8 0 -15 4 -15 9 0 4 7 8 15 8 8 0 15 -4 15 -8z m-15 -42 c3 -5 1
-10 -4 -10 -6 0 -11 5 -11 10 0 6 2 10 4 10 3 0 8 -4 11 -10z m-85 -10 c0 -5
-5 -10 -11 -10 -5 0 -7 5 -4 10 3 6 8 10 11 10 2 0 4 -4 4 -10z"/>
<path d="M3968 2616 c-22 -16 -23 -30 -4 -45 8 -7 13 -21 11 -32 -2 -10 0 -19
6 -19 5 0 8 -3 8 -7 -4 -26 3 -41 18 -39 10 2 34 -4 53 -12 29 -12 32 -12 22
0 -9 11 -9 15 1 16 57 7 62 7 59 -10 -1 -9 2 -19 8 -23 6 -4 10 -3 9 2 -4 22
3 33 22 33 11 0 17 -4 14 -10 -3 -5 -1 -10 4 -10 6 0 11 5 11 11 0 6 7 8 17 5
10 -4 14 -4 10 0 -4 4 -2 13 4 20 7 8 7 14 -1 19 -6 4 -9 1 -8 -6 2 -6 -1 -13
-7 -15 -5 -2 -11 10 -12 26 -1 17 2 30 7 30 6 0 10 8 10 18 1 15 2 15 16 -3
16 -20 16 -20 10 1 -4 14 -2 21 8 21 14 0 12 -21 -5 -42 -11 -15 -6 -71 6 -65
6 3 10 14 10 26 0 25 23 56 36 48 14 -8 11 9 -6 33 -14 20 -14 23 2 32 10 6
13 11 6 11 -6 0 -15 -5 -18 -11 -4 -6 -14 -8 -22 -5 -22 9 -53 -12 -53 -35 0
-16 -2 -18 -14 -7 -8 7 -12 17 -9 21 3 5 -9 1 -26 -8 -17 -9 -37 -13 -43 -9
-7 5 -8 3 -3 -6 5 -8 3 -11 -6 -8 -8 3 -13 10 -12 15 3 15 -44 7 -62 -11 -24
-24 -24 -57 0 -80 20 -18 20 -18 -5 -3 -28 16 -38 51 -20 72 8 10 8 19 0 34
-13 26 -26 27 -39 4 -5 -10 -13 -14 -18 -10 -4 5 3 17 16 28 26 21 16 26 -11
5z m126 -64 c2 -4 -4 -8 -14 -8 -10 0 -16 4 -14 8 3 4 9 8 14 8 5 0 11 -4 14
-8z m96 -2 c0 -5 -2 -10 -4 -10 -3 0 -8 5 -11 10 -3 6 -1 10 4 10 6 0 11 -4
11 -10z m-57 -17 c-7 -3 -10 -10 -7 -17 3 -9 -5 -13 -26 -14 -16 0 -30 4 -30
10 0 5 7 8 15 4 9 -3 20 3 27 14 7 10 17 16 22 13 6 -4 6 -8 -1 -10z m47 -23
c0 -5 -2 -10 -4 -10 -3 0 -8 5 -11 10 -3 6 -1 10 4 10 6 0 11 -4 11 -10z"/>
<path d="M2101 2605 c1 -19 18 -51 18 -35 0 8 -4 22 -9 30 -5 8 -9 11 -9 5z"/>
<path d="M3337 2596 c-8 -8 -18 -12 -23 -8 -5 4 -2 -2 7 -13 9 -11 15 -35 14
-53 -1 -18 4 -37 12 -43 7 -6 10 -16 6 -23 -4 -6 1 -5 10 3 18 14 23 41 8 41
-5 0 -9 15 -8 34 0 19 5 33 9 30 12 -8 9 9 -6 29 -12 16 -15 16 -29 3z"/>
<path d="M3900 2606 c0 -2 7 -7 16 -10 8 -3 12 -2 9 4 -6 10 -25 14 -25 6z"/>
<path d="M2546 2560 c-13 -23 -13 -29 1 -58 8 -17 19 -29 24 -26 5 3 9 0 9 -5
0 -6 5 -11 11 -11 5 0 7 5 4 10 -3 6 1 11 9 11 30 3 34 4 43 13 4 5 3 6 -4 2
-6 -3 -15 -1 -18 5 -4 5 -13 8 -19 6 -7 -3 -19 -1 -27 4 -9 6 -3 8 19 5 23 -2
32 1 32 11 0 11 6 8 21 -8 21 -24 21 -24 0 8 -12 17 -20 37 -19 44 2 8 -10 13
-34 13 -29 1 -40 -4 -52 -24z m49 -10 c3 -5 -1 -10 -10 -10 -9 0 -13 5 -10 10
3 6 8 10 10 10 2 0 7 -4 10 -10z"/>
<path d="M2675 2582 c-2 -2 -1 -10 2 -18 3 -8 -1 -14 -8 -14 -7 0 -3 -7 9 -16
24 -17 31 -69 10 -77 -10 -3 -10 -8 -2 -16 9 -10 15 -9 26 3 9 8 18 13 20 11
3 -3 5 9 5 27 0 18 5 34 11 36 6 2 8 10 5 19 -4 11 -3 14 6 9 7 -4 10 -13 8
-19 -2 -7 0 -20 5 -29 5 -11 5 -18 -1 -18 -5 0 -12 6 -14 13 -4 9 -6 9 -6 0
-1 -18 10 -21 59 -14 36 5 46 11 52 31 7 22 7 22 5 -6 -3 -25 0 -31 12 -27 11
3 10 0 -3 -11 -18 -15 -18 -16 -2 -16 9 0 15 -4 12 -8 -2 -4 4 -8 14 -8 10 0
17 3 15 6 -5 8 18 36 35 42 10 3 14 17 11 49 -3 51 -7 60 -24 53 -8 -3 -11
-19 -9 -44 3 -32 1 -40 -12 -40 -19 0 -21 16 -3 23 10 4 10 6 0 6 -7 1 -13 14
-13 30 0 22 -4 29 -17 26 -11 -1 -17 -9 -15 -20 3 -14 1 -15 -11 -4 -8 8 -14
16 -12 19 3 4 -36 5 -95 1 -13 -1 -20 -8 -20 -21 0 -11 -4 -20 -9 -20 -5 0 -8
10 -7 23 2 16 -2 23 -16 23 -10 0 -21 -2 -23 -4z m105 -12 c0 -5 -5 -10 -11
-10 -5 0 -7 5 -4 10 3 6 8 10 11 10 2 0 4 -4 4 -10z m53 -61 c-11 -11 -43 -2
-43 13 0 5 6 6 13 2 7 -5 6 0 -3 11 -9 11 -10 16 -2 11 7 -4 12 -2 12 6 0 7 7
2 16 -11 10 -14 13 -26 7 -32z m85 -41 c-2 -6 -10 -14 -16 -16 -7 -2 -10 2 -6
12 7 18 28 22 22 4z"/>
<path d="M3401 2568 c-13 -11 -17 -25 -14 -39 5 -17 3 -20 -8 -14 -8 4 -3 -4
11 -17 15 -16 34 -24 49 -23 26 3 54 32 45 47 -3 5 0 16 8 25 11 14 11 16 -1
8 -11 -6 -13 -4 -8 8 4 12 2 14 -10 10 -9 -4 -14 -2 -10 3 10 17 -43 11 -62
-8z m55 -41 c-3 -21 -36 -38 -36 -19 0 6 -3 17 -6 25 -3 10 1 17 13 19 26 6
33 0 29 -25z"/>
<path d="M3430 2531 c0 -6 4 -12 8 -15 5 -3 9 1 9 9 0 8 -4 15 -9 15 -4 0 -8
-4 -8 -9z"/>
<path d="M3285 2531 c-3 -5 0 -13 6 -17 8 -5 9 -3 4 6 -6 9 -2 10 15 5 15 -5
20 -4 16 4 -9 13 -33 14 -41 2z"/>
<path d="M3503 2514 c0 -17 2 -22 7 -13 5 6 6 18 3 26 -8 19 -10 16 -10 -13z"/>
<path d="M3938 2533 c7 -3 16 -2 19 1 4 3 -2 6 -13 5 -11 0 -14 -3 -6 -6z"/>
<path d="M4290 2510 c-9 -6 -10 -10 -3 -10 6 0 15 5 18 10 8 12 4 12 -15 0z"/>
<path d="M2673 2484 c-15 -16 -16 -24 -4 -24 8 0 24 30 19 35 -2 2 -9 -3 -15
-11z"/>
<path d="M2192 2460 c0 -14 2 -19 5 -12 2 6 2 18 0 25 -3 6 -5 1 -5 -13z"/>
<path d="M2828 2463 c7 -3 16 -2 19 1 4 3 -2 6 -13 5 -11 0 -14 -3 -6 -6z"/>
<path d="M2949 2468 c-5 -18 -6 -38 -1 -34 7 8 12 36 6 36 -2 0 -4 -1 -5 -2z"/>
<path d="M3518 2463 c7 -3 16 -2 19 1 4 3 -2 6 -13 5 -11 0 -14 -3 -6 -6z"/>
<path d="M2240 2451 c0 -6 4 -13 10 -16 6 -3 7 1 4 9 -7 18 -14 21 -14 7z"/>
<path d="M3011 2444 c0 -11 3 -14 6 -6 3 7 2 16 -1 19 -3 4 -6 -2 -5 -13z"/>
<path d="M4215 2450 c-3 -6 1 -7 9 -4 18 7 21 14 7 14 -6 0 -13 -4 -16 -10z"/>
<path d="M4030 2440 c-8 -5 -10 -10 -5 -10 6 0 17 5 25 10 8 5 11 10 5 10 -5
0 -17 -5 -25 -10z"/>
<path d="M2340 2140 c0 -5 5 -10 11 -10 5 0 7 5 4 10 -3 6 -8 10 -11 10 -2 0
-4 -4 -4 -10z"/>
<path d="M2537 2093 c3 -7 6 -13 8 -13 2 0 5 6 8 13 3 8 -1 14 -8 14 -7 0 -11
-6 -8 -14z"/>
<path d="M2680 2085 c0 -23 -3 -27 -10 -15 -5 8 -10 10 -10 4 0 -6 3 -14 8
-18 8 -9 9 -13 11 -67 1 -49 25 -49 28 0 2 38 7 46 23 36 8 -5 10 -21 7 -41
-5 -28 -3 -34 12 -34 14 0 17 7 14 33 l-4 32 15 -32 c14 -32 17 -33 70 -31 50
2 56 5 56 24 0 30 10 54 22 54 5 0 8 -8 7 -17 -4 -41 2 -63 16 -63 11 0 15 11
15 40 0 53 27 56 32 3 3 -40 28 -59 28 -22 l0 23 16 -22 c23 -33 78 -28 81 8
4 45 -6 70 -28 70 -11 0 -17 5 -14 10 3 6 3 10 0 10 -10 0 -29 -23 -42 -50
-11 -24 -12 -24 -12 -3 -1 14 -12 28 -31 38 -23 12 -30 12 -28 3 2 -7 -4 -11
-12 -9 -33 8 -89 6 -80 -3 13 -13 13 -73 0 -81 -6 -4 -8 5 -4 22 6 33 -13 63
-42 65 -20 2 -30 28 -11 28 6 0 8 2 5 5 -3 3 -16 1 -29 -4 -17 -7 -19 -10 -7
-10 15 -1 16 -5 6 -26 -6 -14 -16 -25 -21 -25 -5 0 -4 7 3 15 11 13 10 14 -4
9 -9 -3 -16 -1 -16 5 0 7 -9 9 -25 5 -28 -7 -30 -2 -14 28 8 16 8 19 -1 13 -7
-4 -16 -1 -21 6 -6 10 -9 5 -9 -16z m140 -67 c0 7 4 11 8 8 14 -8 6 -51 -9
-51 -8 0 -15 12 -17 30 -2 23 0 27 7 15 8 -11 11 -11 11 -2z m275 2 c3 -5 1
-10 -4 -10 -6 0 -11 5 -11 10 0 6 2 10 4 10 3 0 8 -4 11 -10z"/>
<path d="M2580 2090 c12 -8 12 -11 -1 -27 -9 -10 -20 -25 -24 -33 -8 -13 -7
-13 10 0 17 14 18 13 12 -9 -7 -30 8 -71 28 -71 16 0 20 12 8 24 -14 14 -12
65 2 60 7 -3 16 0 20 6 3 6 1 9 -6 8 -7 -2 -19 9 -26 25 -8 15 -19 27 -26 27
-7 0 -6 -4 3 -10z"/>
<path d="M2878 2093 c7 -3 16 -2 19 1 4 3 -2 6 -13 5 -11 0 -14 -3 -6 -6z"/>
<path d="M2998 2088 c5 -5 16 -8 23 -6 8 3 3 7 -10 11 -17 4 -21 3 -13 -5z"/>
<path d="M3043 2094 c4 -4 1 -14 -6 -23 -11 -14 -10 -15 8 -1 11 8 21 15 23
16 2 1 -5 5 -15 8 -9 4 -14 4 -10 0z"/>
<path d="M2475 2025 c-15 -36 -25 -68 -22 -71 8 -8 47 5 47 16 0 4 9 6 20 3
11 -3 20 -9 20 -14 0 -5 6 -9 14 -9 15 0 17 31 3 41 -5 4 -10 17 -10 31 -1 14
-11 35 -23 47 l-21 22 -28 -66z m45 -15 c0 -5 -4 -10 -10 -10 -5 0 -10 5 -10
10 0 6 5 10 10 10 6 0 10 -4 10 -10z"/>
<path d="M2857 2079 c7 -7 15 -10 18 -7 3 3 -2 9 -12 12 -14 6 -15 5 -6 -5z"/>
<path d="M3102 2076 c7 -8 15 -12 17 -11 5 6 -10 25 -20 25 -5 0 -4 -6 3 -14z"/>
<path d="M2555 2070 c-3 -6 1 -7 9 -4 18 7 21 14 7 14 -6 0 -13 -4 -16 -10z"/>
<path d="M2900 2070 c-8 -5 -10 -10 -5 -10 6 0 17 5 25 10 8 5 11 10 5 10 -5
0 -17 -5 -25 -10z"/>
<path d="M2987 2069 c7 -7 15 -10 18 -7 3 3 -2 9 -12 12 -14 6 -15 5 -6 -5z"/>
<path d="M2430 2025 c0 -5 5 -17 10 -25 5 -8 10 -10 10 -5 0 6 -5 17 -10 25
-5 8 -10 11 -10 5z"/>
<path d="M2164 2009 c-3 -6 -1 -16 5 -22 15 -15 14 -30 -1 -21 -7 4 -9 3 -5
-1 10 -12 37 -15 37 -5 0 4 -7 13 -15 20 -9 7 -14 19 -11 27 6 16 0 17 -10 2z"/>
<path d="M2375 2009 c-5 -8 -4 -10 3 -5 7 4 12 3 12 -2 0 -17 -13 -22 -29 -10
-13 10 -14 10 -4 -1 6 -7 9 -19 6 -26 -5 -15 21 -15 34 0 4 4 2 5 -4 1 -16 -9
-17 6 -1 22 9 9 9 15 1 23 -8 8 -13 7 -18 -2z"/>
<path d="M2210 1966 c0 -2 7 -7 16 -10 8 -3 12 -2 9 4 -6 10 -25 14 -25 6z"/>
<path d="M2325 1960 c-3 -6 1 -7 9 -4 18 7 21 14 7 14 -6 0 -13 -4 -16 -10z"/>
<path d="M2189 1709 c-1 -2 -3 -15 -4 -28 -2 -22 -1 -23 10 -8 8 11 15 13 22
6 7 -7 12 -5 17 6 3 10 2 14 -5 10 -5 -4 -16 -1 -24 5 -8 7 -16 11 -16 9z"/>
<path d="M2268 1703 c7 -3 16 -2 19 1 4 3 -2 6 -13 5 -11 0 -14 -3 -6 -6z"/>
<path d="M2355 1699 c-4 -5 -13 -8 -21 -5 -8 3 -11 0 -7 -10 4 -11 9 -12 16
-5 7 7 14 6 21 -5 10 -13 12 -12 13 5 2 24 -12 37 -22 20z"/>
<path d="M2930 1670 c0 -5 5 -10 10 -10 6 0 10 5 10 10 0 6 -4 10 -10 10 -5 0
-10 -4 -10 -10z"/>
<path d="M2926 1641 c-3 -5 -3 -16 0 -25 8 -20 -6 -43 -16 -26 -9 14 -60 21
-60 8 0 -5 -10 -6 -22 -2 -21 6 -21 6 -5 -10 12 -12 15 -26 11 -43 -9 -36 16
-54 58 -42 19 5 38 4 50 -2 15 -8 23 -8 32 1 8 8 7 10 -5 5 -12 -5 -16 1 -16
29 0 19 4 33 9 30 4 -3 8 0 8 6 0 6 5 8 10 5 7 -4 6 -13 -1 -27 -8 -15 -8 -19
0 -14 7 5 11 -2 11 -18 0 -14 5 -26 10 -26 6 0 10 7 10 15 0 19 14 19 33 0 8
-8 17 -11 21 -8 3 4 6 1 6 -4 0 -6 -6 -14 -12 -16 -10 -4 -10 -6 0 -6 7 -1 15
6 18 14 4 10 15 13 33 10 20 -4 22 -3 7 3 -15 6 -16 11 -7 16 7 5 18 3 24 -3
6 -6 19 -11 29 -11 10 0 18 -5 18 -11 0 -8 4 -8 14 0 10 9 16 9 21 1 4 -6 14
-9 22 -6 9 4 21 2 28 -4 10 -8 15 -8 21 1 4 7 3 9 -4 5 -6 -3 -13 -2 -17 4 -3
5 2 10 12 10 11 0 24 5 31 12 8 8 15 8 26 -1 22 -18 72 -10 68 11 -1 9 6 22
17 28 12 6 18 16 15 25 -4 8 -11 12 -16 9 -6 -4 -5 -10 3 -15 9 -5 9 -9 3 -9
-17 0 -46 48 -39 63 4 7 0 4 -8 -5 -13 -16 -15 -16 -32 0 -10 9 -15 11 -11 4
4 -7 4 -21 1 -33 -5 -16 -10 -18 -21 -8 -18 14 -19 43 -1 33 6 -4 9 -3 4 1
-11 13 -45 16 -52 5 -3 -6 1 -7 9 -4 9 3 16 1 16 -5 0 -6 -12 -11 -26 -11 -20
0 -25 4 -20 16 3 9 2 12 -4 9 -6 -4 -10 -12 -9 -18 3 -22 -1 -37 -9 -37 -5 0
-8 13 -7 30 1 23 -1 27 -11 19 -7 -6 -14 -29 -16 -52 -2 -25 -9 -42 -18 -45
-13 -5 -13 -3 0 13 14 17 13 18 -5 12 -20 -7 -20 -7 -1 8 11 8 15 15 9 15 -6
0 -13 9 -16 20 -4 17 -11 19 -40 16 -25 -4 -37 -1 -41 10 -3 8 -11 14 -18 13
-10 0 -10 -2 0 -6 22 -9 12 -20 -15 -17 -16 2 -20 1 -11 -2 17 -5 17 -7 2 -22
-15 -14 -17 -14 -26 1 -5 9 -20 17 -33 17 -19 0 -24 5 -22 21 2 23 -17 37 -27
20z m199 -52 c11 -17 -1 -21 -15 -4 -8 9 -8 15 -2 15 6 0 14 -5 17 -11z m-235
-21 c0 -4 -7 -8 -15 -8 -8 0 -15 4 -15 8 0 5 7 9 15 9 8 0 15 -4 15 -9z m201
-5 c11 -13 11 -15 1 -9 -9 6 -12 3 -10 -9 2 -10 -3 -20 -9 -22 -14 -5 -19 38
-6 50 9 9 9 9 24 -10z m203 7 c14 -5 26 -16 26 -25 0 -12 -4 -11 -20 5 -12 12
-25 18 -30 15 -6 -4 -10 -1 -10 4 0 13 2 13 34 1z m86 -5 c0 -2 -9 -3 -19 -2
-11 0 -18 5 -15 9 4 6 34 0 34 -7z m-450 -10 c0 -8 -4 -15 -10 -15 -5 0 -7 7
-4 15 4 8 8 15 10 15 2 0 4 -7 4 -15z m305 -5 c3 -5 -1 -10 -9 -10 -9 0 -16 5
-16 10 0 6 4 10 9 10 6 0 13 -4 16 -10z m-354 -23 c-13 -13 -26 -3 -16 12 3 6
11 8 17 5 6 -4 6 -10 -1 -17z m394 3 c3 -6 -1 -7 -9 -4 -18 7 -21 14 -7 14 6
0 13 -4 16 -10z m-37 -36 c-4 -3 -12 5 -18 18 -12 22 -12 22 6 6 10 -10 15
-20 12 -24z"/>
<path d="M2175 1629 c-4 -6 -5 -12 -2 -15 2 -3 7 2 10 11 7 17 1 20 -8 4z"/>
<path d="M2490 1618 c0 -10 -23 -65 -40 -99 -6 -11 -2 -19 14 -29 11 -7 18 -9
14 -5 -4 4 -3 17 3 27 8 15 14 17 22 9 14 -14 30 -15 22 -1 -3 6 -2 10 3 10 5
0 12 -9 15 -21 4 -14 10 -18 18 -13 8 5 11 2 7 -8 -7 -18 30 -18 41 1 4 6 16
9 27 6 17 -6 17 -5 2 5 -9 6 -16 16 -14 23 1 6 1 9 -1 5 -3 -5 -9 -8 -14 -8
-12 0 -7 32 6 42 6 5 4 8 -5 8 -12 0 -13 2 -1 9 9 6 11 14 4 26 -7 12 -25 18
-66 20 -33 1 -57 -2 -57 -7z m78 -11 c11 3 13 2 5 -4 -8 -5 -9 -14 -3 -23 6
-9 4 -20 -3 -29 -9 -12 -9 -13 1 -7 6 4 12 2 12 -3 0 -6 -5 -11 -10 -11 -12 0
-30 41 -23 53 2 4 0 7 -6 7 -6 0 -7 8 -4 17 4 10 8 12 10 6 3 -7 12 -9 21 -6z
m-48 -43 c0 -8 -4 -14 -8 -14 -4 0 -8 9 -8 19 0 11 4 17 8 15 4 -3 8 -12 8
-20z m70 -59 c7 -8 9 -15 6 -15 -4 0 -14 7 -22 15 -9 8 -11 15 -6 15 5 0 15
-7 22 -15z"/>
<path d="M2643 1617 c-3 -6 -1 -7 5 -3 7 4 12 2 12 -3 0 -14 -27 -14 -33 -1
-3 6 -4 5 -3 -1 1 -7 12 -16 25 -20 12 -5 20 -5 17 -1 -2 4 -1 14 4 22 6 10 9
6 8 -15 -2 -78 2 -93 24 -98 28 -8 45 3 24 15 -12 7 -16 21 -15 53 2 24 5 42
9 40 3 -2 12 1 20 7 13 8 12 9 -2 5 -9 -3 -19 -3 -22 1 -10 10 -67 9 -73 -1z"/>
<path d="M2850 1626 c0 -2 7 -7 16 -10 8 -3 12 -2 9 4 -6 10 -25 14 -25 6z"/>
<path d="M2965 1620 c-3 -6 1 -7 9 -4 18 7 21 14 7 14 -6 0 -13 -4 -16 -10z"/>
<path d="M3406 1618 c3 -5 10 -6 15 -3 13 9 11 12 -6 12 -8 0 -12 -4 -9 -9z"/>
<path d="M3171 1594 c0 -11 3 -14 6 -6 3 7 2 16 -1 19 -3 4 -6 -2 -5 -13z"/>
<path d="M2745 1590 c-4 -6 -10 -8 -14 -6 -12 8 -4 -47 12 -77 10 -19 17 -24
22 -17 4 7 16 10 26 7 18 -5 23 2 17 20 -2 4 -12 9 -22 10 -27 5 -36 16 -11
13 11 -1 26 -2 33 -1 15 1 16 33 0 49 -15 15 -54 16 -63 2z m30 -20 c3 -5 1
-10 -4 -10 -6 0 -11 5 -11 10 0 6 2 10 4 10 3 0 8 -4 11 -10z"/>
<path d="M2630 1576 c0 -2 7 -7 16 -10 8 -3 12 -2 9 4 -6 10 -25 14 -25 6z"/>
<path d="M2196 1541 c-3 -5 1 -14 8 -20 10 -9 16 -9 21 -1 4 6 1 9 -7 8 -7 -2
-12 3 -10 10 2 14 -4 16 -12 3z"/>
<path d="M2353 1538 c1 -7 -4 -12 -11 -10 -8 1 -11 -2 -7 -8 5 -8 11 -8 21 1
7 6 11 15 8 20 -8 13 -14 11 -11 -3z"/>
<path d="M2167 1508 c6 -40 13 -50 13 -18 0 23 0 23 23 4 12 -10 9 -4 -7 14
-17 17 -31 32 -32 32 -1 0 0 -15 3 -32z"/>
<path d="M2364 1508 c-16 -18 -19 -24 -6 -14 15 13 22 15 22 6 0 -19 10 -7 15
19 5 27 4 27 -31 -11z"/>
<path d="M2310 1500 c-9 -6 -10 -10 -3 -10 6 0 15 5 18 10 8 12 4 12 -15 0z"/>
<path d="M2527 1487 c-3 -8 1 -14 9 -14 16 0 19 13 5 21 -5 3 -11 0 -14 -7z"/>
<path d="M2915 1490 c3 -5 8 -10 11 -10 2 0 4 5 4 10 0 6 -5 10 -11 10 -5 0
-7 -4 -4 -10z"/>
<path d="M3415 1490 c-3 -6 1 -7 9 -4 18 7 21 14 7 14 -6 0 -13 -4 -16 -10z"/>
<path d="M2430 1486 c0 -2 7 -7 16 -10 8 -3 12 -2 9 4 -6 10 -25 14 -25 6z"/>
<path d="M2670 1486 c0 -2 9 -6 20 -9 11 -3 20 -1 20 4 0 5 -9 9 -20 9 -11 0
-20 -2 -20 -4z"/>
<path d="M2170 1201 c-7 -13 -7 -22 0 -26 5 -3 10 -5 11 -3 11 48 7 61 -11 29z"/>
<path d="M2489 1203 c14 -28 14 -36 -1 -27 -7 5 -8 3 -4 -5 5 -7 0 -19 -10
-27 -11 -9 -13 -13 -6 -9 15 8 15 5 -3 -38 -8 -19 -20 -37 -27 -40 -9 -4 -9
-6 2 -7 8 -1 22 -3 31 -5 12 -2 15 3 12 16 -4 15 0 19 20 19 14 0 29 -5 33
-12 5 -8 0 -9 -16 -5 -13 3 -19 2 -14 -3 5 -4 18 -10 29 -12 11 -2 19 -9 18
-16 -2 -6 4 -9 13 -5 9 3 11 9 6 12 -5 3 -8 18 -6 34 2 18 -1 25 -8 21 -7 -4
-8 -2 -4 4 4 7 3 12 -3 12 -6 0 -8 7 -4 15 10 27 27 10 28 -26 1 -31 24 -90
25 -61 0 15 30 16 30 1 0 -6 5 -7 13 -2 6 4 26 9 42 9 17 1 40 2 53 3 25 1 28
18 9 46 -11 14 -16 15 -22 5 -6 -9 -4 -11 5 -5 8 5 11 3 8 -6 -3 -8 -12 -15
-21 -17 -12 -2 -15 4 -13 25 1 19 7 27 17 24 8 -2 22 -6 33 -9 16 -4 17 -2 7
17 -15 27 -66 29 -80 2 -10 -18 -8 -51 4 -71 9 -14 -9 -12 -23 2 -9 9 -12 9
-12 0 0 -7 -5 -12 -11 -12 -5 0 -7 5 -4 10 4 6 3 10 -2 9 -24 -4 -32 4 -30 31
1 19 7 28 14 26 7 -3 10 1 6 10 -3 7 -9 14 -14 14 -5 0 -9 7 -9 15 0 11 -7 14
-23 10 -15 -4 -28 -1 -36 9 -7 9 -18 13 -23 10 -5 -3 -16 2 -24 12 -14 18 -14
18 -5 -3z m72 -43 c11 0 11 -2 -1 -10 -15 -10 -40 12 -40 34 0 6 7 3 14 -6 7
-10 19 -18 27 -18z m-37 -45 c3 -9 0 -15 -8 -15 -7 0 -13 7 -13 15 0 8 4 15 8
15 4 0 9 -7 13 -15z"/>
<path d="M2374 1193 c3 -16 16 -22 16 -8 0 3 0 10 0 15 0 6 -4 10 -9 10 -5 0
-8 -8 -7 -17z"/>
<path d="M2910 1202 c0 -7 -4 -10 -10 -7 -5 3 -12 -6 -16 -20 -3 -14 -10 -25
-16 -25 -5 0 -6 -6 -1 -12 4 -7 8 -29 9 -48 1 -19 3 -38 3 -42 1 -3 10 -4 21
-1 14 4 17 9 11 17 -13 15 -10 56 4 56 5 0 11 -12 12 -26 0 -15 11 -36 23 -48
13 -11 20 -16 16 -9 -4 7 3 13 19 15 32 4 33 23 1 23 -13 0 -28 4 -33 9 -4 5
-1 7 7 4 8 -3 25 -1 38 3 17 7 21 6 16 -4 -5 -8 -2 -8 9 2 22 18 22 32 0 24
-17 -6 -17 -5 -1 13 16 18 15 19 -27 22 -24 1 -46 -2 -50 -8 -12 -20 -23 -10
-21 20 1 17 -1 36 -6 43 -6 9 -8 9 -8 -1z m74 -80 c3 -5 -1 -9 -9 -9 -8 0 -12
4 -9 9 3 4 7 8 9 8 2 0 6 -4 9 -8z"/>
<path d="M2600 1196 c0 -2 7 -6 15 -10 8 -3 15 -1 15 4 0 6 -7 10 -15 10 -8 0
-15 -2 -15 -4z"/>
<path d="M2945 1179 c-4 -6 -5 -12 -2 -15 2 -3 7 2 10 11 7 17 1 20 -8 4z"/>
<path d="M2618 1163 c7 -3 16 -2 19 1 4 3 -2 6 -13 5 -11 0 -14 -3 -6 -6z"/>
<path d="M2777 1143 c-15 -14 -6 -25 18 -21 14 3 25 1 25 -3 0 -5 -8 -9 -19
-9 -25 0 -42 -22 -31 -40 5 -8 7 -17 5 -20 -2 -3 13 -4 33 -3 61 3 68 4 55 10
-7 2 -13 9 -13 14 0 6 6 7 13 3 8 -6 8 -3 -1 9 -8 9 -11 21 -7 27 16 26 -55
56 -78 33z m53 -58 c0 -7 -30 -13 -34 -7 -3 4 4 9 15 9 10 1 19 0 19 -2z"/>
<path d="M2166 1122 c-3 -5 1 -18 9 -28 14 -18 15 -18 12 3 -4 27 -13 38 -21
25z"/>
<path d="M2379 1128 c-6 -25 -6 -38 1 -38 12 0 20 29 10 35 -6 4 -10 5 -11 3z"/>
<path d="M2310 1040 c-9 -6 -10 -10 -3 -10 6 0 15 5 18 10 8 12 4 12 -15 0z"/>
<path d="M2617 1019 c7 -7 15 -10 18 -7 3 3 -2 9 -12 12 -14 6 -15 5 -6 -5z"/>
<path d="M2667 1015 c3 -8 9 -12 14 -9 12 7 11 11 -5 17 -10 4 -13 1 -9 -8z"/>
<path d="M2748 1023 c7 -3 16 -2 19 1 4 3 -2 6 -13 5 -11 0 -14 -3 -6 -6z"/>
<path d="M2875 1020 c-3 -6 1 -7 9 -4 18 7 21 14 7 14 -6 0 -13 -4 -16 -10z"/>
<path d="M2198 803 c-8 -10 -13 -11 -18 -3 -5 8 -9 7 -13 -3 -6 -15 15 -18 29
-4 4 4 13 2 21 -4 7 -6 13 -10 14 -8 6 30 5 36 -7 36 -8 0 -19 -7 -26 -14z"/>
<path d="M2268 813 c7 -3 16 -2 19 1 4 3 -2 6 -13 5 -11 0 -14 -3 -6 -6z"/>
<path d="M2331 806 c-10 -12 -8 -17 9 -26 12 -6 18 -16 14 -23 -4 -7 2 -4 12
6 18 17 18 18 -2 38 -18 17 -22 18 -33 5z m39 -30 c0 -6 -7 -3 -14 6 -7 10
-17 14 -21 10 -5 -4 -5 -1 -1 6 6 10 11 10 22 1 8 -6 14 -17 14 -23z"/>
<path d="M2195 771 c-3 -5 -2 -12 3 -15 5 -3 9 1 9 9 0 17 -3 19 -12 6z"/>
<path d="M2505 739 c3 -4 -2 -10 -11 -13 -8 -3 -12 -2 -9 4 3 6 2 10 -4 10 -5
0 -12 -13 -16 -30 -4 -16 -11 -30 -16 -30 -5 0 -9 -9 -9 -20 0 -11 4 -20 8
-20 5 0 14 -10 21 -23 8 -15 21 -22 41 -22 17 -1 30 3 30 8 0 4 6 5 13 1 6 -4
9 -4 5 0 -3 4 0 22 7 41 8 18 13 34 12 36 -1 2 0 3 3 1 8 -6 7 -77 -1 -82 -5
-3 17 -5 47 -5 38 0 53 4 50 12 -3 7 0 15 6 19 7 4 6 9 -3 15 -12 7 -12 9 0 9
11 0 11 3 1 15 -10 12 -9 15 5 15 14 0 16 -7 13 -40 -3 -38 14 -64 26 -37 3 9
5 9 5 0 1 -7 9 -13 19 -13 14 0 15 2 2 10 -8 5 -10 10 -4 10 6 0 14 -3 18 -7
24 -24 67 -4 61 28 -2 11 0 17 6 13 5 -3 9 -14 7 -24 -2 -11 0 -19 5 -20 23
-1 28 1 22 10 -3 5 -1 19 5 30 8 15 8 20 -2 20 -7 0 -2 9 12 20 23 18 24 20 5
21 -11 1 -24 0 -30 -1 -5 -2 -29 -2 -51 -1 -50 2 -74 -17 -67 -53 3 -14 1 -26
-5 -26 -5 0 -9 16 -8 35 1 19 -2 35 -5 35 -4 0 -6 11 -5 25 2 13 -1 22 -6 19
-5 -3 -7 -12 -4 -20 9 -24 -11 -15 -29 12 -25 38 -39 17 -36 -56 2 -52 0 -59
-14 -53 -12 4 -13 8 -5 13 9 6 9 9 -1 13 -12 4 -11 7 1 16 12 8 12 11 1 11
-11 0 -11 3 -1 15 9 11 10 15 1 15 -8 0 -10 8 -6 19 3 11 2 22 -3 24 -14 10
-35 -10 -29 -27 4 -10 1 -16 -8 -16 -8 0 -15 6 -15 14 0 8 -5 18 -12 22 -7 4
-8 3 -4 -4 5 -8 2 -10 -8 -6 -9 3 -14 9 -11 13 2 4 -2 8 -10 8 -8 0 -12 -4
-10 -8z m32 -59 c-1 -12 -8 -18 -20 -17 -11 1 -21 -4 -23 -11 -1 -7 0 -8 3 -2
8 17 26 11 19 -6 -5 -14 -4 -15 9 -4 11 9 15 9 15 1 0 -18 -29 -25 -45 -11
-26 21 -19 50 13 51 27 2 27 2 2 7 -23 4 -24 5 -5 12 26 10 34 4 32 -20z m257
-8 c2 -4 -4 -9 -15 -9 -11 -1 -17 2 -14 8 7 11 22 12 29 1z m-14 -42 c0 -5 -2
-10 -4 -10 -3 0 -8 5 -11 10 -3 6 -1 10 4 10 6 0 11 -4 11 -10z"/>
<path d="M2747 739 c7 -7 15 -10 18 -7 3 3 -2 9 -12 12 -14 6 -15 5 -6 -5z"/>
<path d="M2995 740 c-16 -7 -17 -9 -3 -9 9 -1 20 4 23 9 7 11 7 11 -20 0z"/>
<path d="M3044 742 c-6 -4 -10 -19 -9 -34 1 -16 -2 -28 -7 -28 -4 0 -8 4 -8 9
0 9 -48 26 -64 22 -5 -1 -13 4 -19 11 -6 9 -7 8 -3 -5 3 -10 6 -52 6 -93 0
-76 12 -96 30 -49 5 14 16 25 24 25 8 0 22 10 30 22 17 24 22 17 7 -10 -7 -14
-4 -17 18 -18 25 -1 26 0 24 58 0 37 3 56 9 52 6 -4 2 5 -7 20 -10 14 -18 26
-19 26 0 0 -6 -4 -12 -8z m-44 -79 c0 -7 -4 -13 -10 -13 -5 0 -10 -7 -10 -17
0 -19 -13 -9 -16 12 -1 8 2 15 7 15 6 0 8 4 5 8 -3 5 1 9 9 9 8 0 15 -6 15
-14z"/>
<path d="M3216 739 c3 -5 12 -9 20 -9 9 0 12 -5 8 -12 -4 -7 -3 -8 5 -4 15 10
7 22 -19 29 -11 3 -18 1 -14 -4z"/>
<path d="M2840 726 c10 -10 70 -15 64 -5 -2 4 -20 9 -39 11 -22 3 -32 1 -25
-6z"/>
<path d="M3093 723 c13 -16 14 -20 1 -37 -20 -28 -18 -42 4 -23 12 11 22 13
32 7 12 -8 11 -10 -6 -10 -27 0 -47 -24 -40 -47 8 -25 79 -24 84 1 3 16 5 16
15 2 19 -26 64 -30 76 -7 8 14 7 22 -4 31 -12 10 -15 9 -15 -4 0 -23 -17 -20
-31 5 -8 16 -8 24 2 33 9 8 10 8 4 -4 -8 -13 -7 -13 8 -1 11 9 17 10 17 2 0
-6 7 -11 16 -11 10 0 14 6 10 15 -3 8 -1 15 4 15 5 0 8 -18 5 -39 -3 -30 1
-41 13 -47 26 -11 56 -10 64 1 13 18 8 26 -11 20 -11 -3 -22 -1 -26 5 -4 6 -1
11 6 9 31 -4 39 2 39 29 0 35 -38 63 -55 39 -12 -16 -72 -14 -89 3 -6 6 -15
10 -20 10 -6 0 -4 -5 4 -10 10 -6 11 -10 3 -10 -7 0 -13 -6 -13 -14 0 -8 -5
-18 -12 -22 -7 -4 -8 -3 -4 5 4 6 0 14 -8 17 -9 3 -16 14 -17 23 0 10 -2 11
-6 4 -2 -7 -9 -13 -14 -13 -6 0 -7 5 -3 12 4 7 3 8 -5 4 -6 -4 -14 0 -17 8 -3
9 -11 16 -17 16 -5 0 -3 -8 6 -17z m237 -51 c0 -5 -7 -9 -15 -9 -8 0 -12 4 -9
9 3 4 9 8 15 8 5 0 9 -4 9 -8z m-196 -37 c-4 -8 -11 -15 -16 -15 -6 0 -5 6 2
15 7 8 14 15 16 15 2 0 1 -7 -2 -15z"/>
<path d="M2817 709 c7 -7 15 -10 18 -7 3 3 -2 9 -12 12 -14 6 -15 5 -6 -5z"/>
<path d="M3165 700 c3 -5 8 -10 11 -10 2 0 4 5 4 10 0 6 -5 10 -11 10 -5 0 -7
-4 -4 -10z"/>
<path d="M2910 689 c0 -5 5 -7 10 -4 6 3 10 8 10 11 0 2 -4 4 -10 4 -5 0 -10
-5 -10 -11z"/>
<path d="M2380 679 c0 -5 5 -7 10 -4 6 3 10 8 10 11 0 2 -4 4 -10 4 -5 0 -10
-5 -10 -11z"/>
<path d="M2365 629 c-6 -17 -9 -18 -23 -7 -12 9 -12 7 2 -9 19 -23 41 -21 32
2 -2 7 1 18 7 24 8 8 8 11 0 11 -7 0 -15 -9 -18 -21z"/>
<path d="M2183 622 c-2 -22 20 -24 37 -4 7 9 7 9 -2 2 -7 -6 -15 -4 -22 6 -10
13 -12 13 -13 -4z"/>
<path d="M2420 636 c0 -4 7 -14 15 -22 8 -9 15 -11 15 -6 0 5 -7 15 -15 22 -8
7 -15 9 -15 6z"/>
<path d="M2248 453 c7 -3 16 -2 19 1 4 3 -2 6 -13 5 -11 0 -14 -3 -6 -6z"/>
<path d="M7230 456 c0 -2 11 -11 25 -20 14 -9 25 -13 25 -8 0 5 -11 14 -25 20
-14 6 -25 10 -25 8z"/>
<path d="M7290 410 c0 -5 5 -10 11 -10 5 0 7 5 4 10 -3 6 -8 10 -11 10 -2 0
-4 -4 -4 -10z"/>
<path d="M7334 372 c-5 -9 -7 -30 -4 -47 6 -28 7 -27 12 15 6 53 5 54 -8 32z"/>
<path d="M2120 365 c0 -8 2 -15 4 -15 2 0 6 7 10 15 3 8 1 15 -4 15 -6 0 -10
-7 -10 -15z"/>
<path d="M2203 303 c9 -2 25 -2 35 0 9 3 1 5 -18 5 -19 0 -27 -2 -17 -5z"/>
<path d="M2121 284 c0 -11 3 -14 6 -6 3 7 2 16 -1 19 -3 4 -6 -2 -5 -13z"/>
<path d="M2348 255 c2 -14 6 -25 7 -25 1 0 5 11 7 25 3 16 1 25 -7 25 -8 0
-10 -9 -7 -25z"/>
<path d="M2560 276 c0 -2 7 -7 16 -10 8 -3 12 -2 9 4 -6 10 -25 14 -25 6z"/>
<path d="M2638 273 c7 -3 16 -2 19 1 4 3 -2 6 -13 5 -11 0 -14 -3 -6 -6z"/>
<path d="M2710 276 c0 -2 7 -7 16 -10 8 -3 12 -2 9 4 -6 10 -25 14 -25 6z"/>
<path d="M2756 273 c6 -4 14 -15 17 -23 5 -11 6 -9 4 4 -1 11 -9 21 -17 23
-10 3 -11 2 -4 -4z"/>
<path d="M2930 276 c0 -2 7 -7 16 -10 8 -3 12 -2 9 4 -6 10 -25 14 -25 6z"/>
<path d="M2985 270 c4 -6 11 -8 16 -5 14 9 11 15 -7 15 -8 0 -12 -5 -9 -10z"/>
<path d="M3126 273 c6 -4 14 -15 17 -23 5 -11 6 -9 4 4 -1 11 -9 21 -17 23
-10 3 -11 2 -4 -4z"/>
<path d="M3382 260 c0 -14 2 -19 5 -12 2 6 2 18 0 25 -3 6 -5 1 -5 -13z"/>
<path d="M3433 274 c21 -7 23 -24 3 -24 -21 0 -30 -20 -17 -33 9 -9 11 -8 6 6
-5 11 -2 17 8 17 9 0 18 -8 21 -17 2 -10 4 -2 3 17 -2 27 -7 35 -22 37 -16 1
-16 1 -2 -3z"/>
<path d="M3560 276 c0 -2 9 -6 20 -9 11 -3 18 -1 14 4 -5 9 -34 13 -34 5z"/>
<path d="M7336 258 c-9 -36 -7 -61 8 -81 12 -16 14 -15 14 9 0 19 -3 23 -10
13 -6 -9 -7 2 -3 34 7 49 2 63 -9 25z"/>
<path d="M2203 263 c9 -2 23 -2 30 0 6 3 -1 5 -18 5 -16 0 -22 -2 -12 -5z"/>
<path d="M2911 244 c0 -11 3 -14 6 -6 3 7 2 16 -1 19 -3 4 -6 -2 -5 -13z"/>
<path d="M3207 249 c7 -7 15 -10 18 -7 3 3 -2 9 -12 12 -14 6 -15 5 -6 -5z"/>
<path d="M2408 243 c6 -2 18 -2 25 0 6 3 1 5 -13 5 -14 0 -19 -2 -12 -5z"/>
<path d="M2541 234 c0 -11 3 -14 6 -6 3 7 2 16 -1 19 -3 4 -6 -2 -5 -13z"/>
<path d="M2828 243 c7 -3 16 -2 19 1 4 3 -2 6 -13 5 -11 0 -14 -3 -6 -6z"/>
<path d="M2397 218 c2 -5 10 -8 18 -8 8 0 16 3 18 8 3 4 -5 7 -18 7 -13 0 -21
-3 -18 -7z"/>
<path d="M2940 220 c-9 -6 -10 -10 -3 -10 6 0 15 5 18 10 8 12 4 12 -15 0z"/>
<path d="M2203 213 c9 -2 25 -2 35 0 9 3 1 5 -18 5 -19 0 -27 -2 -17 -5z"/>
<path d="M2818 213 c7 -3 16 -2 19 1 4 3 -2 6 -13 5 -11 0 -14 -3 -6 -6z"/>
<path d="M3218 213 c7 -3 16 -2 19 1 4 3 -2 6 -13 5 -11 0 -14 -3 -6 -6z"/>
<path d="M3568 213 c7 -3 16 -2 19 1 4 3 -2 6 -13 5 -11 0 -14 -3 -6 -6z"/>
<path d="M2120 164 c1 -16 29 -60 29 -44 0 8 -6 24 -14 34 -8 11 -15 16 -15
10z"/>
<path d="M7320 158 c0 -6 -7 -19 -15 -28 -15 -16 -14 -17 11 -17 19 0 23 2 13
9 -11 7 -11 11 -1 15 14 6 16 33 2 33 -5 0 -10 -5 -10 -12z"/>
<path d="M2160 113 c0 -15 19 -37 26 -31 3 4 -1 14 -10 23 -9 9 -16 13 -16 8z"/>
<path d="M7230 70 c-13 -8 -13 -10 2 -10 9 0 20 5 23 10 8 13 -5 13 -25 0z"/>
<path d="M3517 63 c662 -2 1744 -2 2405 0 662 1 121 2 -1202 2 -1323 0 -1864
-1 -1203 -2z"/>
</g>
</svg>
